<svg width="64" height="64" viewBox="0 0 64 64" fill="none" xmlns="http://www.w3.org/2000/svg">
<path fill-rule="evenodd" clip-rule="evenodd" d="M42.9717 29.07L29.5478 51.41H27.1157L29.52 36.8532L21.97 36.865C21.8106 36.8651 21.6527 36.8338 21.5054 36.7728C21.3581 36.7118 21.2243 36.6224 21.1115 36.5097C20.9988 36.397 20.9094 36.2632 20.8484 36.1158C20.7875 35.9685 20.7562 35.8107 20.7563 35.6512C20.7563 35.3633 21.0238 34.8758 21.0238 34.8758L34.4038 12.5623L36.8787 12.573L34.4137 27.1523L42.017 27.1415C42.1764 27.1414 42.3343 27.1727 42.4816 27.2337C42.6289 27.2947 42.7627 27.3841 42.8755 27.4968C42.9882 27.6095 43.0776 27.7433 43.1386 27.8907C43.1995 28.038 43.2309 28.1958 43.2308 28.3552C43.2308 28.6272 43.124 28.8663 42.9725 29.0688L42.9735 29.0697L42.9717 29.07ZM32 0C14.3265 0 0 14.325 0 32C0 49.675 14.3265 64 32 64C49.6735 64 64 49.6735 64 32C64 14.3265 49.675 0 32 0Z" fill="#0379C4"/>
</svg>
