<svg width="64" height="64" viewBox="0 0 64 64" fill="none" xmlns="http://www.w3.org/2000/svg">
<path d="M0 55.7477C0 60.3057 3.69475 64 8.25225 64H55.7475C60.3058 64 64 60.3052 64 55.7477V8.2525C64 3.69425 60.3052 0 55.7477 0H8.2525C3.69425 0 0 3.69475 0 8.25225V55.7475V55.7477Z" fill="#563D7C"/>
<path d="M26.5394 28.3095V19.2463H34.5172C35.2772 19.2463 36.0097 19.3095 36.7152 19.4363C37.4207 19.5628 38.0449 19.7888 38.5877 20.1145C39.1302 20.4402 39.5644 20.8925 39.8902 21.4713C40.2157 22.0503 40.3787 22.792 40.3787 23.6963C40.3787 25.3245 39.8902 26.5005 38.9132 27.224C37.9364 27.9478 36.6882 28.3095 35.1684 28.3095H26.5394ZM18.0186 12.625V51.375H36.7967C38.5334 51.375 40.2249 51.158 41.8712 50.7238C43.5175 50.2895 44.9827 49.6203 46.2672 48.7158C47.5515 47.8113 48.5737 46.6442 49.3335 45.2152C50.0935 43.786 50.4733 42.0945 50.4733 40.1408C50.4733 37.7165 49.8852 35.6453 48.7095 33.9268C47.5335 32.208 45.7515 31.005 43.3635 30.3175C45.1002 29.4855 46.412 28.418 47.2985 27.1155C48.1847 25.813 48.628 24.185 48.628 22.231C48.628 20.422 48.3295 18.9025 47.7325 17.6723C47.1355 16.4423 46.2942 15.4563 45.2087 14.7145C44.1235 13.9728 42.821 13.439 41.3012 13.1135C39.7817 12.7877 38.0992 12.625 36.2539 12.625H18.0186ZM26.5394 44.7537V34.1165H35.8197C37.6649 34.1165 39.1484 34.5415 40.2702 35.392C41.3917 36.2422 41.9527 37.6622 41.9527 39.6522C41.9527 40.6655 41.7807 41.4975 41.4369 42.1488C41.0932 42.8 40.6319 43.3158 40.0529 43.6955C39.4742 44.0755 38.8047 44.3468 38.0449 44.5098C37.2849 44.6722 36.4892 44.7537 35.6569 44.7537H26.5394Z" fill="white"/>
</svg>
