<svg width="463" height="483" viewBox="0 0 463 483" fill="none" xmlns="http://www.w3.org/2000/svg">
<g opacity="0.2">
<circle cx="231.149" cy="251.696" r="231.149" fill="white" fill-opacity="0.1"/>
<circle cx="231.149" cy="251.696" r="230.649" stroke="#F2F2F2" stroke-opacity="0.1"/>
<circle cx="231.149" cy="251.696" r="214.338" fill="white" fill-opacity="0.1"/>
<circle cx="231.149" cy="251.696" r="213.838" stroke="#F2F2F2" stroke-opacity="0.1"/>
<circle cx="231.148" cy="251.695" r="197.527" fill="white" fill-opacity="0.1"/>
<circle cx="231.148" cy="251.695" r="197.027" stroke="#F2F2F2" stroke-opacity="0.1"/>
<circle cx="231.149" cy="251.696" r="184.452" fill="white" fill-opacity="0.1"/>
<circle cx="231.149" cy="251.696" r="183.952" stroke="#F2F2F2" stroke-opacity="0.1"/>
<circle cx="231.149" cy="251.695" r="170.443" fill="white" fill-opacity="0.1"/>
<circle cx="231.149" cy="251.695" r="169.443" stroke="#F2F2F2" stroke-opacity="0.1" stroke-width="2"/>
<circle cx="231.149" cy="251.695" r="153.632" fill="#4882F8"/>
</g>
<path d="M313.588 212.272L230.507 290.785L232.565 214.151L310.715 141.238L313.588 212.272Z" fill="#2E6DEE"/>
<path d="M380.053 225.748L230.507 373.865L232.438 299.612L377.364 157.854L380.053 225.748Z" fill="#2E6DEE"/>
<path d="M220.84 379.036L223.515 211.971L362.117 81.9452L363.437 0L153.892 193.698L154.962 266.472L95.2551 321.572C90.5286 324.494 86.7789 328.73 84.4758 333.75C82.1727 338.77 81.4185 344.35 82.3079 349.792C79.0978 351.944 53.7742 373.745 56.1996 383.234C58.6249 393.252 75.2102 396.815 81.1666 398.79C82.2211 392.25 85.2193 386.168 89.7797 381.319C94.3402 376.469 100.257 373.071 106.776 371.558" fill="#2E6DEE"/>
</svg>
