<svg width="65" height="64" viewBox="0 0 65 64" fill="none" xmlns="http://www.w3.org/2000/svg">
<path d="M37.8323 0C37.3677 0 36.9363 0.099562 36.538 0.232304C37.3843 0.79647 37.8489 1.54317 38.0812 2.38942C38.0978 2.50557 38.131 2.58854 38.1476 2.70468C38.1642 2.80425 38.1808 2.90381 38.1808 3.00337C38.2472 4.46356 37.7991 4.64609 37.4838 5.50893C37.0026 6.62068 37.1354 7.81539 37.7161 8.77779C37.7659 8.89394 37.8323 9.02668 37.9153 9.14284C37.2847 4.94477 40.7859 4.31422 41.433 3.00337C41.4828 1.85844 40.537 1.09515 39.7903 0.564167C39.0768 0.132746 38.4296 0 37.8323 0ZM43.1089 0.945811C43.0425 1.32745 43.0923 1.22789 43.0758 1.42701C43.0592 1.55976 43.0592 1.72569 43.0426 1.85844C43.0094 1.99118 42.9762 2.12392 42.9265 2.25668C42.8933 2.38942 42.8435 2.52216 42.7937 2.65491C42.7273 2.78766 42.6776 2.90381 42.6112 3.03655C42.5614 3.10295 42.5282 3.16929 42.4784 3.23567C42.4453 3.28545 42.412 3.33523 42.3789 3.38501C42.2959 3.50116 42.2129 3.61731 42.13 3.71687C42.0304 3.81643 41.9475 3.93258 41.8313 4.01555C41.8313 4.03217 41.8313 4.03217 41.8313 4.03217C41.7317 4.11513 41.6322 4.21469 41.516 4.29765C41.1676 4.56314 40.7693 4.76226 40.4043 5.01116C40.2881 5.09412 40.172 5.1605 40.0724 5.26006C39.9563 5.34302 39.8567 5.42599 39.7572 5.52555C39.641 5.62511 39.558 5.72467 39.4585 5.84082C39.3755 5.94038 39.276 6.05653 39.2096 6.17269C39.1266 6.28883 39.0437 6.40499 38.9773 6.52114C38.9109 6.65388 38.8611 6.77004 38.7948 6.90278C38.745 7.03552 38.6952 7.15168 38.662 7.28442C38.6122 7.43376 38.579 7.56651 38.5459 7.69926C38.5292 7.76566 38.5292 7.84859 38.5127 7.91497C38.4961 7.98137 38.4961 8.04771 38.4795 8.11409C38.4795 8.24683 38.4629 8.39617 38.4629 8.52891C38.4629 8.62847 38.4629 8.72803 38.4795 8.82759C38.4795 8.96033 38.4962 9.09308 38.5293 9.24242C38.5459 9.37516 38.5791 9.50791 38.6123 9.64066C38.6621 9.7734 38.6953 9.90615 38.745 10.0389C38.7782 10.1219 38.828 10.2048 38.8612 10.2712L35.0448 8.7944C34.3976 8.61188 33.7671 8.44595 33.1199 8.29661C32.7715 8.21365 32.423 8.13068 32.0746 8.04771C31.079 7.84859 30.0668 7.69926 29.0546 7.5997C29.0215 7.5997 29.0048 7.58308 28.9717 7.58308C27.9761 7.48353 26.9971 7.43375 26.0015 7.43375C25.2714 7.43375 24.5413 7.46691 23.8278 7.51671C22.8156 7.58311 21.8034 7.71583 20.7912 7.88176C20.5423 7.91492 20.2934 7.96473 20.0445 8.01451C19.5301 8.11406 19.0323 8.23022 18.5511 8.34637C18.3022 8.41277 18.0533 8.47912 17.8044 8.54548C17.5556 8.64504 17.3232 8.7612 17.0909 8.86076C16.9084 8.94372 16.7259 9.02669 16.5434 9.10966C16.5102 9.12627 16.477 9.12627 16.4604 9.14282C16.2945 9.22578 16.1451 9.29215 15.9958 9.37512C15.946 9.39174 15.9128 9.40828 15.8796 9.4249C15.6971 9.50787 15.5146 9.60742 15.3653 9.69039C15.2491 9.74017 15.1329 9.80654 15.0334 9.85633C14.9836 9.88948 14.9172 9.92272 14.884 9.93929C14.7347 10.0223 14.5854 10.1052 14.4526 10.1882C14.3033 10.2712 14.1705 10.3541 14.0544 10.4371C13.9382 10.5201 13.8221 10.5864 13.7225 10.6694C13.7059 10.686 13.6894 10.686 13.6727 10.7025C13.5732 10.7689 13.457 10.8519 13.3575 10.9349C13.3575 10.9349 13.3409 10.9515 13.3243 10.968C13.2414 11.0344 13.1584 11.1008 13.0754 11.1671C13.0423 11.1837 13.009 11.2169 12.9759 11.2335C12.8929 11.2999 12.8099 11.3829 12.727 11.4492C12.7103 11.4824 12.6772 11.499 12.6606 11.5156C12.561 11.6152 12.4614 11.6982 12.3619 11.7977C12.3453 11.7977 12.3453 11.8143 12.3287 11.8309C12.2292 11.9138 12.1296 12.0134 12.03 12.113C12.0134 12.1296 12.0134 12.1461 11.9969 12.1461C11.9139 12.2291 11.831 12.3121 11.748 12.4116C11.7148 12.4448 11.665 12.478 11.6318 12.5112C11.5489 12.6107 11.4493 12.7103 11.3498 12.8099C11.3331 12.843 11.3 12.8596 11.2834 12.8928C11.1506 13.0256 11.0345 13.1583 10.9017 13.2911C10.8851 13.3077 10.8686 13.3242 10.8519 13.3408C10.5864 13.6229 10.3044 13.905 10.0057 14.1539C9.70701 14.4194 9.39174 14.6683 9.07646 14.884C8.7446 15.1163 8.42933 15.3154 8.08087 15.5145C7.74901 15.6971 7.40055 15.863 7.0355 16.0123C6.68704 16.1617 6.322 16.2944 5.95695 16.4106C5.26003 16.5599 4.54653 16.842 3.93258 16.8918C3.79984 16.8918 3.6505 16.9249 3.51775 16.9415C3.36841 16.9747 3.23567 17.0079 3.10292 17.0411C2.97018 17.0909 2.83743 17.1407 2.70469 17.1904C2.57194 17.2402 2.4392 17.3066 2.30645 17.373C2.1903 17.4559 2.05755 17.5223 1.9414 17.6053C1.82525 17.6882 1.7091 17.7878 1.60954 17.8874C1.49339 17.9703 1.37723 18.0865 1.27767 18.186C1.17811 18.3022 1.07855 18.4018 0.995589 18.5179C0.912625 18.6506 0.813065 18.7668 0.746689 18.8995C0.663725 19.0157 0.580762 19.1484 0.514386 19.2812C0.447987 19.4305 0.381642 19.5633 0.331862 19.7126C0.282082 19.8454 0.232303 19.9947 0.182523 20.144C0.149362 20.2768 0.116124 20.4095 0.0995589 20.5423C0.0995589 20.5589 0.0829402 20.5754 0.0829402 20.592C0.0497796 20.7414 0.0497796 20.9405 0.0331602 21.0401C0.0165415 21.1562 0 21.2558 0 21.3719C0 21.4383 0 21.5213 0.0166187 21.5876C0.0332374 21.7038 0.0497788 21.8034 0.0830178 21.9029C0.116178 22.0025 0.149417 22.102 0.199166 22.2016C0.199166 22.2182 0.199166 22.2182 0.199166 22.2182C0.248946 22.3178 0.315321 22.4173 0.381689 22.5169C0.448089 22.6164 0.514441 22.716 0.597405 22.8156C0.680368 22.8985 0.779928 22.9981 0.879488 23.0811C0.979048 23.1806 1.07861 23.2636 1.19476 23.3465C1.59299 23.695 1.69255 23.8112 2.20694 24.0766C2.2899 24.1264 2.37288 24.1596 2.47244 24.2094C2.48906 24.2094 2.5056 24.226 2.52222 24.226C2.52222 24.2592 2.52222 24.2758 2.53884 24.309C2.55546 24.4417 2.58862 24.5745 2.6218 24.7072C2.65496 24.8566 2.70477 24.9893 2.75455 25.1054C2.80433 25.205 2.83752 25.3046 2.8873 25.4041C2.90392 25.4373 2.92046 25.4705 2.93708 25.4871C3.00348 25.6198 3.06982 25.736 3.13619 25.8521C3.21916 25.9683 3.30212 26.0844 3.38509 26.2006C3.46805 26.3002 3.56761 26.4163 3.66717 26.5159C3.76673 26.6154 3.86629 26.6984 3.98245 26.7979C3.98245 26.7979 3.99907 26.8146 4.01561 26.8146C4.11517 26.8976 4.21473 26.9805 4.31429 27.0469C4.43043 27.1299 4.54659 27.1962 4.67933 27.2626C4.79549 27.329 4.92823 27.3953 5.06098 27.4451C5.16054 27.4949 5.27668 27.5281 5.39284 27.5613C5.40946 27.5779 5.426 27.5779 5.45924 27.5944C5.52564 27.6111 5.60857 27.6276 5.67495 27.6442C5.62517 28.5403 5.60855 29.3865 5.74135 29.6852C5.89068 30.017 6.62078 29.0049 7.35088 27.8433C7.25132 28.9883 7.18495 30.3323 7.35088 30.7306C7.53341 31.1454 8.529 29.8511 9.39184 28.4241C21.1564 25.7028 31.8922 33.8335 33.0205 45.3159C32.8048 43.5239 30.5979 42.5283 29.5857 42.7772C29.0879 44.0051 28.2417 45.5814 26.8811 46.5604C26.9972 45.4653 26.9474 44.337 26.7151 43.2418C26.3501 44.7684 25.6366 46.1954 24.6576 47.4233C23.0812 47.5394 21.5049 46.7761 20.6752 45.6312C20.6088 45.5814 20.5922 45.4819 20.5424 45.4155C20.4927 45.2993 20.4429 45.1832 20.4097 45.067C20.3599 44.9509 20.3267 44.8347 20.3101 44.7186C20.2935 44.6024 20.2935 44.4863 20.2935 44.3535C20.2935 44.2706 20.2935 44.1876 20.2935 44.1047C20.3101 43.9885 20.3433 43.8723 20.3765 43.7562C20.4096 43.64 20.4429 43.5239 20.4926 43.4077C20.559 43.2916 20.6088 43.1754 20.6918 43.0593C20.9738 42.2628 20.9738 41.6157 20.4595 41.234C20.3599 41.1676 20.2603 41.1179 20.1442 41.0681C20.0778 41.0515 19.9948 41.0183 19.9285 41.0017C19.8787 40.9851 19.8455 40.9685 19.7957 40.9519C19.6796 40.9188 19.5634 40.8855 19.4473 40.8689C19.3311 40.8358 19.215 40.8192 19.0988 40.8192C18.9827 40.8025 18.8499 40.786 18.7338 40.786C18.6508 40.786 18.5678 40.8026 18.4849 40.8026C18.3521 40.8026 18.236 40.8193 18.1198 40.8524C18.0037 40.869 17.8875 40.8856 17.7714 40.9188C17.6552 40.952 17.5391 40.9852 17.4229 41.035C17.3068 41.0847 17.2072 41.1345 17.091 41.1843C16.9915 41.2341 16.8919 41.3004 16.7758 41.3502C12.9096 43.8724 15.216 49.7796 17.8543 51.4887C16.8587 51.6712 15.8466 51.8869 15.5645 52.1026C15.5479 52.1192 15.5313 52.1358 15.5313 52.1358C16.2448 52.5672 16.9915 52.9322 17.7714 53.2475C18.8333 53.596 19.9617 53.9112 20.4595 54.044V54.0606C21.8367 54.3427 23.2305 54.4422 24.641 54.3593C31.9917 53.8449 38.0151 48.253 39.1102 40.8856C39.1434 41.035 39.1766 41.1677 39.2098 41.317C39.2596 41.6157 39.3259 41.931 39.3591 42.2463C39.3591 42.2463 39.3591 42.2463 39.3591 42.2629C39.3923 42.4122 39.4089 42.5616 39.4255 42.6943C39.4255 42.7275 39.4255 42.7441 39.4255 42.7607C39.4421 42.91 39.4587 43.0594 39.4587 43.1921C39.4753 43.3747 39.4918 43.5572 39.4918 43.7397C39.4918 43.8227 39.4918 43.9056 39.4918 44.0052C39.4918 44.0882 39.5084 44.1877 39.5084 44.2707C39.5084 44.3703 39.4918 44.4698 39.4918 44.5694C39.4918 44.6523 39.4918 44.7353 39.4918 44.8017C39.4918 44.9178 39.4752 45.0174 39.4752 45.1335C39.4752 45.1999 39.4752 45.2663 39.4586 45.3492C39.4586 45.4654 39.442 45.5815 39.442 45.7143C39.4253 45.7641 39.4253 45.8139 39.4253 45.8636C39.4087 45.9964 39.3922 46.1125 39.3755 46.2453C39.3755 46.2951 39.3755 46.3448 39.3589 46.3946C39.3423 46.5605 39.3091 46.7099 39.2925 46.8758V46.8925V46.9091C39.2594 47.0584 39.2261 47.2243 39.193 47.3737C39.193 47.3903 39.193 47.4068 39.193 47.4235C39.1598 47.5728 39.1266 47.7221 39.0934 47.8715C39.0934 47.8881 39.0768 47.9213 39.0768 47.9379C39.0436 48.0872 39.0104 48.2365 38.9606 48.3859C38.9606 48.4025 38.9606 48.419 38.9606 48.4357C38.9109 48.6016 38.8611 48.7509 38.8279 48.9003C38.8113 48.9169 38.8113 48.9334 38.8113 48.9334C38.7615 49.0994 38.7117 49.2653 38.6619 49.4312C38.5956 49.5972 38.5458 49.7465 38.4794 49.9124C38.413 50.0784 38.3633 50.2443 38.2969 50.3936C38.2305 50.5596 38.1642 50.7089 38.0978 50.8748H38.0811C38.0147 51.0242 37.9484 51.1901 37.8654 51.3395C37.8488 51.3892 37.8323 51.4224 37.8156 51.4556C37.799 51.4722 37.799 51.4888 37.7825 51.5054C36.7039 53.6791 35.111 55.5873 33.1198 57.0807C32.9871 57.1636 32.8543 57.2632 32.7216 57.3628C32.6884 57.3959 32.6386 57.4125 32.6054 57.4457C32.4893 57.5287 32.3731 57.6117 32.2404 57.6946L32.2902 57.7942H32.3068C32.5391 57.761 32.7714 57.7278 33.0037 57.6946H33.0203C33.4517 57.6282 33.8831 57.5453 34.3146 57.4623C34.4307 57.4457 34.5635 57.4125 34.6796 57.3794C34.7626 57.3627 34.8289 57.3462 34.9119 57.3296C35.0281 57.3129 35.1442 57.2798 35.2604 57.2632C35.3599 57.23 35.4595 57.2134 35.559 57.1802C37.2184 56.782 38.8279 56.2344 40.3711 55.5873C37.7328 59.188 34.1984 62.0918 30.0667 64C31.9749 63.8673 33.8831 63.552 35.725 63.021C42.412 61.0464 48.0371 56.5497 51.4055 50.4932C50.7252 54.3262 49.1986 57.9767 46.942 61.1626C48.5515 60.1006 50.0283 58.8727 51.3723 57.4789C55.0892 53.5961 57.5284 48.6679 58.3581 43.3747C58.9222 45.9964 59.0882 48.7011 58.8393 51.3726C70.8195 34.6633 59.8349 17.34 55.2386 12.7769C55.2219 12.7437 55.2054 12.7271 55.2054 12.6939C55.1888 12.7105 55.1888 12.7105 55.1888 12.7271C55.1888 12.7105 55.1888 12.7105 55.1721 12.6939C55.1721 12.893 55.1555 13.0922 55.139 13.2913C55.0892 13.6729 55.0394 14.038 54.973 14.403C54.8901 14.7681 54.7905 15.1331 54.691 15.4982C54.5748 15.8466 54.4421 16.2117 54.2927 16.5601C54.1434 16.892 53.9775 17.2404 53.7949 17.5723C53.6124 17.8876 53.4133 18.2194 53.1976 18.5181C52.9819 18.8334 52.7496 19.1321 52.5173 19.4141C52.2683 19.7128 52.0029 19.9783 51.7374 20.2438C51.5714 20.3932 51.4221 20.5259 51.2562 20.6586C51.1234 20.7748 51.0073 20.8744 50.8745 20.9905C50.5758 21.2228 50.2772 21.4385 49.9453 21.6376C49.63 21.8368 49.2982 22.0359 48.9663 22.2018C48.6179 22.3677 48.2694 22.5171 47.9209 22.6664C47.5725 22.7992 47.2074 22.9153 46.8424 23.0149C46.4773 23.1144 46.0957 23.1974 45.7306 23.2638C45.349 23.3302 44.9674 23.3633 44.6023 23.3965C44.3368 23.4131 44.0713 23.4297 43.8058 23.4297C43.4242 23.4297 43.0426 23.3965 42.6775 23.3633C42.2959 23.3301 41.9142 23.2803 41.5492 23.1973C41.1675 23.1309 40.8025 23.0314 40.4374 22.9153H40.4208C40.7859 22.8821 41.1509 22.8489 41.516 22.7825C41.8976 22.7161 42.2626 22.6332 42.6277 22.5336C42.9928 22.4341 43.3578 22.3179 43.7063 22.1852C44.0713 22.0524 44.4198 21.8865 44.7516 21.7205C45.1001 21.5546 45.4154 21.3721 45.7472 21.173C46.0625 20.9573 46.3778 20.7416 46.6764 20.5092C46.9751 20.2769 47.2572 20.028 47.5227 19.7626C47.8048 19.5137 48.0537 19.2316 48.3026 18.9495C48.5515 18.6508 48.7838 18.3521 48.9995 18.0535C49.0326 18.0037 49.0659 17.9373 49.099 17.8875C49.265 17.622 49.4309 17.3565 49.5802 17.0911C49.7628 16.7592 49.9287 16.4273 50.078 16.0789C50.2274 15.7304 50.3601 15.382 50.4763 15.0169C50.5924 14.6684 50.6754 14.3034 50.7584 13.9384C50.8248 13.5567 50.8911 13.1917 50.9243 12.8266C50.9574 12.445 50.9907 12.0633 50.9907 11.6983C50.9907 11.4328 50.974 11.1673 50.9575 10.9018C50.9244 10.5202 50.8746 10.1551 50.8248 9.79006C50.7584 9.40842 50.6754 9.04337 50.5759 8.67832C50.4597 8.32986 50.3436 7.96481 50.2108 7.61636C50.0781 7.2679 49.9122 6.91944 49.7462 6.58758C49.5637 6.25571 49.3812 5.92385 49.1821 5.60858C48.9663 5.29332 48.7506 4.99464 48.5183 4.69596C48.2694 4.41387 48.0205 4.13179 47.755 3.84971C47.6223 3.71697 47.473 3.56762 47.3236 3.43488C46.5769 2.85412 45.797 2.30654 45.0172 1.80875C44.901 1.74235 44.8015 1.69259 44.6853 1.64281C44.1377 1.29436 43.6233 1.11183 43.109 0.945903L43.1089 0.945811Z" fill="#E0234E"/>
</svg>
