<svg width="64" height="64" viewBox="0 0 64 64" fill="none" xmlns="http://www.w3.org/2000/svg">
<path d="M29.8998 0.0172226C29.7622 0.029733 29.3243 0.0735193 28.9303 0.104795C19.8415 0.924225 11.3281 5.82829 5.93618 13.3658C2.93368 17.5568 1.01334 22.3107 0.287739 27.3461C0.031276 29.1039 0 29.623 0 32.0063C0 34.3895 0.031276 34.9087 0.287739 36.6664C2.02668 48.6826 10.5775 58.7785 22.1746 62.5191C24.2514 63.1884 26.4407 63.645 28.9303 63.9202C29.8998 64.0266 34.0908 64.0266 35.0603 63.9202C39.3577 63.4449 42.9982 62.3815 46.5887 60.5487C47.1391 60.2672 47.2454 60.1922 47.1704 60.1296C47.1203 60.0921 44.7747 56.9457 41.9598 53.1426L36.8431 46.2306L30.4315 36.7414C26.9036 31.5246 24.0012 27.2586 23.9761 27.2586C23.9511 27.2523 23.9261 31.4683 23.9136 36.6163C23.8948 45.6301 23.8886 45.9929 23.776 46.2055C23.6133 46.5121 23.4882 46.6372 23.2255 46.7748C23.0254 46.8749 22.8502 46.8936 21.9057 46.8936H20.8235L20.5358 46.7122C20.3481 46.5934 20.2105 46.437 20.1167 46.2556L19.9853 45.9741L19.9978 33.4324L20.0166 20.8845L20.2105 20.6406C20.3106 20.5092 20.5233 20.3403 20.6734 20.259C20.9299 20.1339 21.0299 20.1214 22.1121 20.1214C23.3882 20.1214 23.6008 20.1714 23.9324 20.5342C24.0262 20.6343 27.4978 25.8637 31.6513 32.1626C35.8047 38.4616 41.4844 47.0625 44.2742 51.2848L49.3409 58.9599L49.5974 58.791C51.868 57.3148 54.27 55.213 56.1716 53.0237C60.2187 48.3761 62.8271 42.7089 63.7029 36.6664C63.9593 34.9087 63.9906 34.3895 63.9906 32.0063C63.9906 29.623 63.9593 29.1039 63.7029 27.3461C61.9639 15.3299 53.4131 5.23405 41.8159 1.49345C39.7705 0.830397 37.5937 0.373768 35.1542 0.0985401C34.5537 0.0359882 30.419 -0.0328189 29.8998 0.0172226ZM42.9982 19.3708C43.2984 19.5209 43.5424 19.8086 43.63 20.1089C43.68 20.2715 43.6925 23.7494 43.68 31.5872L43.6612 42.834L41.6783 39.794L39.6892 36.754V28.5784C39.6892 23.2928 39.7142 20.3216 39.7517 20.1777C39.8518 19.8274 40.0707 19.5522 40.371 19.3895C40.6275 19.2582 40.7213 19.2457 41.7034 19.2457C42.6291 19.2457 42.7918 19.2582 42.9982 19.3708Z" fill="#F2F2F2"/>
</svg>
