<svg width="147" height="46" viewBox="0 0 147 46" fill="none" xmlns="http://www.w3.org/2000/svg">
<path d="M20 10.4648V33.2971L16.4245 30.1536L3.57553 18.8449V33.2971H0V10.5444L3.57553 13.6919L16.4245 25.0006V10.4648H20Z" fill="#F2F2F2"/>
<path d="M70.832 10.4767L63.0831 21.879L70.7972 33.2297H66.2915L60.8373 25.1894L55.383 33.2297H50.8774L58.5809 21.879L50.832 10.4648H55.3342L60.8373 18.5725L66.3403 10.4648H70.832V10.4767ZM50.832 33.2297H50.8774L50.832 33.2971V33.2297ZM70.832 33.2812L70.7972 33.2297H70.832V33.2812Z" fill="#F2F2F2"/>
<path d="M93.332 10.4648V14.5376H85.1172V33.2971H81.5468V14.5376H73.332V10.4648H93.332Z" fill="#F2F2F2"/>
<path d="M96.668 33.2971V10.4648H100.001V33.2971H96.668Z" fill="#F2F2F2"/>
<path d="M123.332 10.4648V33.2971H119.753V18.7798L116.238 21.8392L113.315 24.4172L110.388 21.8392L106.9 18.7639V33.2971H103.332V10.4648L106.893 13.6078L113.325 19.2612L119.753 13.6078L123.332 10.4648Z" fill="#F2F2F2"/>
<path d="M130.232 16.6332V18.7451H143.104V22.8136H130.232V27.1287C130.232 27.6835 130.425 28.2159 130.768 28.6093C131.111 29.0028 131.576 29.2254 132.063 29.2286H146.668V33.2971H132.059C130.628 33.2929 129.256 32.641 128.245 31.4845C127.234 30.3281 126.667 28.7615 126.668 27.1287V16.6332C126.666 15.0001 127.233 13.4329 128.244 12.2762C129.255 11.1195 130.627 10.468 132.059 10.4648H146.664V14.5334H132.059C131.574 14.5376 131.109 14.7606 130.766 15.154C130.424 15.5473 130.232 16.0791 130.232 16.6332Z" fill="#F2F2F2"/>
<path d="M42.5013 24.3067L34.168 33.297L34.3744 24.5219L42.2131 16.1729L42.5013 24.3067Z" fill="#F2F2F2"/>
<path d="M49.168 25.8496L34.168 42.8101L34.3616 34.3076L48.8983 18.0752L49.168 25.8496Z" fill="#F2F2F2"/>
<path d="M33.1983 43.4025L33.4666 24.2723L47.3689 9.38334L47.5013 0L26.4832 22.1799L26.5906 30.513L20.6018 36.8224C20.1277 37.157 19.7516 37.6421 19.5206 38.2169C19.2896 38.7917 19.2139 39.4307 19.3031 40.0539C18.9811 40.3003 16.4411 42.7966 16.6844 43.8832C16.9276 45.0303 18.5912 45.4383 19.1886 45.6645C19.2944 44.9156 19.5951 44.2192 20.0526 43.6639C20.51 43.1085 21.1034 42.7195 21.7573 42.5462" fill="#F2F2F2"/>
</svg>
