<svg width="57" height="64" viewBox="0 0 57 64" fill="none" xmlns="http://www.w3.org/2000/svg">
<path d="M28.3987 64C27.5168 64 26.6936 63.7648 25.9293 63.3532L18.1093 58.7083C16.9334 58.0615 17.5214 57.8264 17.8741 57.7088C19.4616 57.1796 19.7556 57.062 21.4019 56.1213C21.5783 56.0037 21.8135 56.0625 21.9899 56.1801L27.9871 59.7666C28.2223 59.8842 28.5163 59.8842 28.6927 59.7666L52.1525 46.1847C52.3877 46.0671 52.5053 45.8319 52.5053 45.5379V18.4327C52.5053 18.1387 52.3877 17.9035 52.1525 17.7859L28.6927 4.26275C28.4575 4.14515 28.1635 4.14515 27.9871 4.26275L4.52733 17.7859C4.29215 17.9035 4.17455 18.1975 4.17455 18.4327V45.5379C4.17455 45.7731 4.29215 46.0671 4.52733 46.1847L10.9362 49.8888C14.4051 51.6527 16.5806 49.5949 16.5806 47.537V20.7846C16.5806 20.4318 16.8746 20.079 17.2862 20.079H20.2848C20.6376 20.079 20.9904 20.373 20.9904 20.7846V47.537C20.9904 52.1819 18.4621 54.8865 14.0524 54.8865C12.7 54.8865 11.6417 54.8865 8.64309 53.4166L2.46945 49.8888C0.940744 49.0069 0 47.3606 0 45.5967V18.4915C0 16.7276 0.940744 15.0813 2.46945 14.1994L25.9293 0.617363C27.3992 -0.205788 29.3983 -0.205788 30.8682 0.617363L54.328 14.1994C55.8567 15.0813 56.7974 16.7276 56.7974 18.4915V45.5967C56.7974 47.3606 55.8567 49.0069 54.328 49.8888L30.8682 63.4708C30.1038 63.8236 29.2219 64 28.3987 64ZM35.6307 45.3615C25.3413 45.3615 23.2246 40.6578 23.2246 36.6596C23.2246 36.3068 23.5186 35.9541 23.9302 35.9541H26.9876C27.3404 35.9541 27.6344 36.1892 27.6344 36.542C28.1047 39.6582 29.4571 41.187 35.6895 41.187C40.6284 41.187 42.7451 40.0698 42.7451 37.424C42.7451 35.8953 42.1571 34.7781 34.4548 34.0138C28.0459 33.367 24.0478 31.9559 24.0478 26.8406C24.0478 22.0781 28.0459 19.2559 34.7487 19.2559C42.2747 19.2559 45.9789 21.8429 46.4492 27.4874C46.4492 27.6638 46.3904 27.8401 46.2729 28.0165C46.1553 28.1341 45.9789 28.2517 45.8025 28.2517H42.7451C42.4511 28.2517 42.1571 28.0165 42.0983 27.7226C41.3927 24.4887 39.5701 23.4304 34.7487 23.4304C29.3395 23.4304 28.6927 25.3119 28.6927 26.723C28.6927 28.4281 29.4571 28.9573 36.7478 29.898C43.9798 30.8388 47.39 32.1911 47.39 37.2476C47.3312 42.4217 43.0978 45.3615 35.6307 45.3615Z" fill="#539E43"/>
</svg>
