<svg width="98" height="40" viewBox="0 0 98 40" fill="none" xmlns="http://www.w3.org/2000/svg">
<path d="M89.0564 14.684C87.0873 14.684 87.2929 17.1042 87.2112 19.688H90.4921C90.4921 16.7757 90.4921 14.684 89.0564 14.684ZM87.2112 23.9128C87.2112 26.2504 88.3593 26.7015 90.2871 26.7015C92.5022 26.7015 95.4958 26.0448 96.6444 25.8399V31.5006C95.7424 31.8289 92.9944 32.6074 90.2871 32.6074C85.4062 32.6074 79.4583 31.8282 79.4583 21.4105C79.4583 12.2228 84.1343 10.049 89.0562 10.049C94.1015 10.049 97.7517 12.633 97.7517 21.3283V23.9128H87.2112ZM67.9712 15.7914C67.5205 15.7914 66.6179 16.1605 66.1259 16.448V26.9475C66.4947 27.0711 67.1511 27.153 67.4384 27.153C68.7921 27.153 69.6124 26.0044 69.6124 21.2058C69.6119 16.3246 69.2425 15.7914 67.9712 15.7914ZM68.8733 32.6079C67.889 32.6079 66.8636 32.3208 66.1255 32.1566V39.9907H58.3324V10.4593H64.6486L65.7974 11.8128C66.9866 10.7465 68.6687 10.049 70.4322 10.049C73.6311 10.049 77.4046 10.9512 77.4046 21.2051C77.4046 32.4443 71.7446 32.6079 68.8733 32.6079ZM51.1531 7.79334C48.9795 7.79334 47.2979 6.02959 47.2979 3.89667C47.2979 1.76375 48.9795 0 51.1531 0C53.3273 0 55.0089 1.76375 55.0089 3.89667C55.0089 6.02959 53.3273 7.79334 51.1531 7.79334ZM47.2568 32.1979V10.4593H55.05V32.1979H47.2568ZM42.5381 16.5708C41.3076 16.5708 40.3641 17.0632 39.9539 17.3091V32.1979H32.161V10.4593H38.3544L39.5028 12.5509C39.9539 11.1974 41.1844 10.0488 42.9892 10.0488C44.2197 10.0488 45.04 10.295 45.4087 10.4999V16.9801C44.6295 16.7757 43.6044 16.5708 42.5381 16.5708ZM27.7296 26.7017C28.2217 26.7017 29.9446 26.456 30.5182 26.3734V31.9106C29.3292 32.1974 26.7039 32.6079 24.9815 32.6079C22.7664 32.6079 18.624 32.3621 18.624 26.3328V15.4224H15.7529V10.4593H18.6244L19.6088 5.53743L26.4173 3.89689V10.4595H30.5189L29.4937 15.4226H26.4176V24.9384C26.4171 26.4145 26.8682 26.7017 27.7296 26.7017ZM7.58844 16.7348C7.58844 17.5962 8.16296 17.8832 9.51624 18.4984L10.3367 18.8678C12.2643 19.7291 14.93 21.1237 14.93 25.2255C14.93 31.7878 10.049 32.6081 6.56282 32.6081C4.30691 32.6081 1.92802 32.0749 0.32833 31.5832V25.9636C1.72268 26.3334 4.14308 26.9068 5.2091 26.9068C6.39855 26.9068 7.30095 26.7432 7.30095 25.6765C7.30095 24.8563 6.72665 24.4873 5.45529 23.9132L4.47075 23.4619C2.62531 22.6004 0 21.1243 0 17.1455C0 11.3211 4.55266 10.0499 8.36742 10.0499C11.2387 10.0499 13.1254 10.7059 14.1095 11.0753V16.5304C12.9609 16.1614 10.6235 15.669 9.22898 15.669C8.28572 15.6686 7.58844 15.9143 7.58844 16.7348Z" fill="#359AD5"/>
</svg>
