<svg width="67" height="40" viewBox="0 0 67 40" fill="none" xmlns="http://www.w3.org/2000/svg">
<path d="M33.3424 0C24.4508 0 18.8939 4.44454 16.6708 13.3328C20.0054 8.88824 23.8954 7.22216 28.3408 8.33288C30.8774 8.96662 32.6903 10.807 34.6974 12.8433C37.9662 16.1604 41.7495 19.9996 50.014 19.9996C58.9047 19.9996 64.4625 15.555 66.6847 6.66597C63.3509 11.1105 59.4609 12.7774 55.0147 11.6667C52.4789 11.033 50.6661 9.1926 48.6589 7.15629C45.3901 3.83915 41.606 0 33.3424 0ZM16.6708 19.9996C7.78003 19.9996 2.22227 24.4441 0 33.3332C3.33382 28.8887 7.22383 27.2217 11.67 28.3333C14.2058 28.9679 16.0187 30.8074 18.0258 32.8429C21.2946 36.16 25.0787 40 33.3424 40C42.2339 40 47.7909 35.5555 50.014 26.6664C46.6793 31.1109 42.7893 32.7778 38.3439 31.6663C35.8073 31.0334 33.9945 29.1922 31.9873 27.1567C28.7185 23.8396 24.9353 19.9996 16.6708 19.9996Z" fill="#06B6D4"/>
</svg>
