<svg width="100" height="23" viewBox="0 0 100 23" fill="none" xmlns="http://www.w3.org/2000/svg">
<path d="M49.8868 5.65929C45.9819 5.65929 43.1664 8.20597 43.1664 12.026C43.1664 15.846 46.3356 18.3927 50.2405 18.3927C52.5997 18.3927 54.6795 17.4589 55.967 15.8849L53.2612 14.3215C52.5467 15.1032 51.4608 15.5595 50.2405 15.5595C48.5463 15.5595 47.1067 14.6752 46.5726 13.2604H56.4834C56.5613 12.8643 56.6072 12.454 56.6072 12.0225C56.6072 8.20597 53.7917 5.65929 49.8868 5.65929ZM46.5407 10.788C46.9829 9.37674 48.1926 8.48894 49.8833 8.48894C51.5775 8.48894 52.7872 9.37674 53.2258 10.788H46.5407ZM87.974 5.65929C84.069 5.65929 81.2535 8.20597 81.2535 12.026C81.2535 15.846 84.4227 18.3927 88.3277 18.3927C90.6869 18.3927 92.7667 17.4589 94.0542 15.8849L91.3483 14.3215C90.6338 15.1032 89.548 15.5595 88.3277 15.5595C86.6334 15.5595 85.1938 14.6752 84.6597 13.2604H94.5706C94.6484 12.8643 94.6944 12.454 94.6944 12.0225C94.6944 8.20597 91.8789 5.65929 87.974 5.65929ZM84.6314 10.788C85.0736 9.37674 86.2832 8.48894 87.974 8.48894C89.6682 8.48894 90.8779 9.37674 91.3165 10.788H84.6314ZM70.8263 12.026C70.8263 14.1482 72.2128 15.563 74.3633 15.563C75.8206 15.563 76.9136 14.9016 77.4759 13.8228L80.1924 15.3897C79.0676 17.2644 76.9595 18.3927 74.3633 18.3927C70.4549 18.3927 67.6429 15.846 67.6429 12.026C67.6429 8.20597 70.4584 5.65929 74.3633 5.65929C76.9595 5.65929 79.0641 6.78761 80.1924 8.66225L77.4759 10.2292C76.9136 9.15037 75.8206 8.48894 74.3633 8.48894C72.2163 8.48894 70.8263 9.90376 70.8263 12.026ZM100 1.76853V18.039H96.8166V1.76853H100ZM13.0695 0L26.1389 22.6372H0L13.0695 0ZM45.7449 1.76853L35.9437 18.7464L26.1425 1.76853H29.8175L35.9437 12.3797L42.0699 1.76853H45.7449ZM66.5818 6.013V9.4404C66.2281 9.33783 65.8531 9.26709 65.4499 9.26709C63.3949 9.26709 61.9128 10.6819 61.9128 12.8041V18.039H58.7295V6.013H61.9128V9.26709C61.9128 7.47026 64.0033 6.013 66.5818 6.013Z" fill="#F2F2F2"/>
</svg>
