<svg width="34" height="47" viewBox="0 0 34 47" fill="none" xmlns="http://www.w3.org/2000/svg">
<path d="M26.4994 24.8546L18.166 33.8449L18.3724 25.0697L26.2111 16.7207L26.4994 24.8546Z" fill="#4882F8"/>
<path d="M33.166 26.3994L18.166 43.3599L18.3597 34.8574L32.8963 18.625L33.166 26.3994Z" fill="#4882F8"/>
<path d="M17.1963 43.9513L17.4647 24.8211L31.367 9.93217L31.4993 0.548828L10.4813 22.7287L10.5886 31.0619L4.59981 37.3713C4.12572 37.7058 3.74962 38.1909 3.51861 38.7657C3.2876 39.3406 3.21195 39.9796 3.30116 40.6027C2.97918 40.8491 0.439134 43.3454 0.682407 44.432C0.92568 45.5792 2.58924 45.9871 3.18669 46.2133C3.29245 45.4644 3.59318 44.768 4.05061 44.2127C4.50804 43.6574 5.10147 43.2683 5.75536 43.095" fill="#4882F8"/>
</svg>
