<svg width="147" height="47" viewBox="0 0 147 47" fill="none" xmlns="http://www.w3.org/2000/svg">
<g id="Group 2">
<path id="Vector" d="M20 11.0137V33.8459L16.4245 30.7024L3.57553 19.3937V33.8459H0V11.0932L3.57553 14.2407L16.4245 25.5494V11.0137H20Z" fill="white"/>
<path id="Vector_2" d="M70.833 11.0256L63.0841 22.4278L70.7981 33.7785H66.2925L60.8382 25.7383L55.384 33.7785H50.8783L58.5819 22.4278L50.833 11.0137H55.3352L60.8382 19.1213L66.3413 11.0137H70.833V11.0256ZM50.833 33.7785H50.8783L50.833 33.8459V33.7785ZM70.833 33.8301L70.7981 33.7785H70.833V33.8301Z" fill="white"/>
<path id="Vector_3" d="M93.333 11.0137V15.0865H85.1182V33.8459H81.5478V15.0865H73.333V11.0137H93.333Z" fill="white"/>
<path id="Vector_4" d="M96.667 33.8459V11.0137H100V33.8459H96.667Z" fill="white"/>
<path id="Vector_5" d="M123.333 11.0137V33.8459H119.754V19.3286L116.238 22.388L113.316 24.9661L110.389 22.388L106.901 19.3127V33.8459H103.333V11.0137L106.894 14.1566L113.326 19.81L119.754 14.1566L123.333 11.0137Z" fill="white"/>
<path id="Vector_6" d="M130.231 17.1821V19.2939H143.103V23.3624H130.231V27.6775C130.231 28.2324 130.424 28.7647 130.767 29.1582C131.11 29.5516 131.575 29.7742 132.062 29.7774H146.667V33.8459H132.058C130.627 33.8417 129.255 33.1898 128.244 32.0334C127.233 30.8769 126.666 29.3104 126.667 27.6775V17.1821C126.665 15.5489 127.232 13.9817 128.243 12.825C129.254 11.6684 130.626 11.0168 132.058 11.0137H146.664V15.0822H132.058C131.573 15.0864 131.108 15.3095 130.765 15.7028C130.423 16.0962 130.231 16.6279 130.231 17.1821Z" fill="white"/>
<g id="Group 138">
<path id="Vector_7" d="M42.5003 24.8546L34.167 33.8449L34.3734 25.0697L42.2121 16.7207L42.5003 24.8546Z" fill="#4882F8"/>
<path id="Vector_8" d="M49.167 26.3994L34.167 43.3599L34.3606 34.8574L48.8973 18.625L49.167 26.3994Z" fill="#4882F8"/>
<path id="Vector_9" d="M33.1973 43.9513L33.4656 24.8211L47.368 9.93217L47.5003 0.548828L26.4823 22.7287L26.5896 31.0619L20.6008 37.3713C20.1267 37.7058 19.7506 38.1909 19.5196 38.7657C19.2886 39.3406 19.2129 39.9796 19.3021 40.6027C18.9802 40.8491 16.4401 43.3454 16.6834 44.432C16.9267 45.5792 18.5902 45.9871 19.1877 46.2133C19.2934 45.4644 19.5942 44.768 20.0516 44.2127C20.509 43.6574 21.1024 43.2683 21.7563 43.095" fill="#4882F8"/>
</g>
</g>
</svg>
