<svg width="11" height="22" viewBox="0 0 11 22" fill="none" xmlns="http://www.w3.org/2000/svg">
<path fill-rule="evenodd" clip-rule="evenodd" d="M2.42069 10.6841V20.8256C2.42069 20.9721 2.55173 21.0881 2.71724 21.0881H6.97242C7.13793 21.0881 7.26896 20.9721 7.26896 20.8256V10.5193H10.3517C10.5034 10.5193 10.6345 10.4155 10.6483 10.275L10.9448 7.17336C10.9586 7.02072 10.8207 6.8864 10.6483 6.8864H7.26896V4.68226C7.26896 4.16328 7.74483 3.74809 8.32414 3.74809H10.7035C10.869 3.74809 11 3.63209 11 3.48555V0.377777C11 0.231242 10.869 0.115234 10.7035 0.115234H6.68965C4.33103 0.115234 2.42069 1.8065 2.42069 3.89463V6.8864H0.296547C0.131029 6.8864 0 7.00241 0 7.14894V10.2506C0 10.3971 0.131029 10.5132 0.296547 10.5132H2.42069V10.6841Z" fill="#BDBDBD"/>
</svg>
