<svg width="24" height="22" viewBox="0 0 24 22" fill="none" xmlns="http://www.w3.org/2000/svg">
<path d="M18.3116 4.1476C17.5343 4.1476 16.8978 4.72191 16.8978 5.43674C16.8978 6.14546 17.5276 6.72588 18.3116 6.72588C19.0888 6.72588 19.7253 6.15157 19.7253 5.43674C19.7253 4.72191 19.0955 4.1476 18.3116 4.1476ZM12.0402 5.79721C8.77052 5.79721 6.11056 8.22274 6.11056 11.2042C6.11056 14.1858 8.77052 16.6113 12.0402 16.6113C15.3099 16.6113 17.9699 14.1858 17.9699 11.2042C17.9699 8.22274 15.3099 5.79721 12.0402 5.79721ZM12.0402 14.6623C9.94305 14.6623 8.24121 13.1105 8.24121 11.1981C8.24121 9.28582 9.94305 7.73397 12.0402 7.73397C14.1374 7.73397 15.8392 9.28582 15.8392 11.1981C15.8392 13.1105 14.1374 14.6623 12.0402 14.6623ZM24 6.70755C24 3.0662 20.7638 0.115234 16.7705 0.115234H7.22949C3.23619 0.115234 0 3.0662 0 6.70755V15.4077C0 19.049 3.23619 22 7.22949 22H16.7705C20.7638 22 24 19.049 24 15.4077V6.70755ZM21.7354 15.4138C21.7354 17.9126 19.5109 19.941 16.7705 19.941H7.22949C4.48912 19.941 2.26466 17.9126 2.26466 15.4138V6.70755C2.26466 4.2087 4.48912 2.1803 7.22949 2.1803H16.7705C19.5109 2.1803 21.7354 4.2087 21.7354 6.70755V15.4138Z" fill="#BDBDBD"/>
</svg>
