<svg width="20" height="18" viewBox="0 0 20 18" fill="none" xmlns="http://www.w3.org/2000/svg">
<path d="M20 10.6985V17.0604C20 17.2153 19.859 17.3463 19.6777 17.3463H15.9785C15.8039 17.3463 15.6563 17.2212 15.6563 17.0604V11.1452C15.6563 9.59048 15.0319 8.5242 13.4542 8.5242C12.2524 8.5242 11.5408 9.23903 11.2252 9.93598C11.1111 10.1862 11.0843 10.5257 11.0843 10.8772V17.0664C11.0843 17.2212 10.9433 17.3523 10.762 17.3523H7.06276C6.88821 17.3523 6.74052 17.2272 6.74052 17.0664C6.74723 15.4937 6.7875 7.84512 6.74722 6.0521C6.74051 5.89126 6.88821 5.76617 7.06948 5.76617H10.762C10.9366 5.76617 11.0843 5.89126 11.0843 6.0521V7.41027C11.0775 7.42218 11.0641 7.4341 11.0574 7.44601H11.0843V7.41027C11.6616 6.62396 12.6888 5.49811 14.9983 5.49811C17.8583 5.4862 20 7.14221 20 10.6985ZM0.322243 17.3463H4.02148C4.19603 17.3463 4.34374 17.2212 4.34374 17.0604V6.04019C4.34374 5.88531 4.20274 5.75426 4.02148 5.75426H0.322243C0.147687 5.75426 0 5.87935 0 6.04019V17.0604C0 17.2212 0.147687 17.3463 0.322243 17.3463Z" fill="#BDBDBD"/>
<path d="M5 2.30702C5 3.56544 3.88004 4.58667 2.49999 4.58667C1.11993 4.58667 0 3.56544 0 2.30702C0 1.0486 1.11993 0.0273753 2.49999 0.0273753C3.88004 0.0207867 5 1.0486 5 2.30702Z" fill="#BDBDBD"/>
</svg>
