<svg width="40" height="27" viewBox="0 0 40 27" fill="none" xmlns="http://www.w3.org/2000/svg">
<path fill-rule="evenodd" clip-rule="evenodd" d="M12.2175 12.9993L9.80746 12.5868C8.95538 12.4428 8.08267 12.4769 7.24447 12.6872C6.40627 12.8975 5.62079 13.2794 4.93764 13.8086C4.2545 14.3379 3.68853 15.0031 3.2755 15.7622C2.86246 16.5213 2.61133 17.3577 2.53797 18.2188C2.46462 19.0799 2.57062 19.9468 2.84929 20.7648C3.12796 21.5828 3.57325 22.3341 4.15701 22.9713C4.74078 23.6085 5.45035 24.1178 6.2409 24.4668C7.03144 24.8159 7.88578 24.9972 8.74996 24.9993H33.75C34.6926 24.9987 35.6005 24.6431 36.2928 24.0032C36.9851 23.3634 37.411 22.4863 37.4857 21.5465C37.5604 20.6068 37.2785 19.6734 36.696 18.9322C36.1135 18.191 35.2732 17.6964 34.3425 17.5468L31.75 17.1343L32.29 14.5643C32.5505 13.2769 32.5548 11.9507 32.3028 10.6616C32.0508 9.37246 31.5474 8.14558 30.8212 7.05101C30.0951 5.95644 29.1604 5.01562 28.0707 4.28225C26.9809 3.54889 25.7574 3.03735 24.47 2.77684C23.1825 2.51633 21.8564 2.51195 20.5672 2.76395C19.2781 3.01596 18.0512 3.51941 16.9566 4.24557C15.8621 4.97172 14.9212 5.90635 14.1879 6.99611C13.4545 8.08586 12.943 9.30939 12.6825 10.5968L12.22 12.9968L12.2175 12.9993ZM34.9275 13.8518C35.2817 10.6426 34.3803 7.42071 32.4122 4.86112C30.4441 2.30153 27.562 0.602767 24.3694 0.120651C21.1768 -0.361466 17.9216 0.410465 15.2854 2.27476C12.6492 4.13905 10.8367 6.95108 10.2275 10.1218C9.03442 9.92009 7.8125 9.96798 6.6389 10.2625C5.46531 10.557 4.36554 11.0917 3.4091 11.8328C2.45265 12.5739 1.66031 13.5054 1.08214 14.5683C0.503963 15.6312 0.152519 16.8024 0.0500121 18.0081C-0.0524952 19.2137 0.0961617 20.4275 0.486591 21.5728C0.87702 22.718 1.50073 23.7698 2.31833 24.6618C3.13592 25.5538 4.12963 26.2665 5.23666 26.7549C6.34369 27.2433 7.53998 27.4968 8.74996 27.4993H33.7475C35.3175 27.4964 36.8289 26.9026 37.9812 25.8362C39.1334 24.7697 39.842 23.3086 39.9662 21.7435C40.0903 20.1783 39.6208 18.6238 38.6511 17.3891C37.6813 16.1543 36.2824 15.3297 34.7325 15.0793C34.815 14.6793 34.8825 14.2693 34.925 13.8543L34.9275 13.8518Z" fill="#00DAE9"/>
</svg>
