<?xml version="1.0" encoding="UTF-8"?>
<!DOCTYPE svg PUBLIC "-//W3C//DTD SVG 1.1//EN" "http://www.w3.org/Graphics/SVG/1.1/DTD/svg11.dtd">
<!-- Creator: CorelDRAW 2021.5 (Versão de avaliação) -->
<svg xmlns="http://www.w3.org/2000/svg" xml:space="preserve" width="100%" height="100%" version="1.1" shape-rendering="geometricPrecision" text-rendering="geometricPrecision" image-rendering="optimizeQuality" fill-rule="evenodd" clip-rule="evenodd" viewBox="0 0 12000 12000" xmlns:xlink="http://www.w3.org/1999/xlink" xmlns:xodm="http://www.corel.com/coreldraw/odm/2003">
	<g id="Camada_x0020_1">
		<metadata id="CorelCorpID_0Corel-Layer" />
		<path fill="#3AC1D0" fill-rule="nonzero" d="M1168.78 7719.34c-121.37,0 -240.05,-16.07 -354.58,-48.17 -166.01,-46.65 -307.47,-142.86 -421.04,-286.13 -7.11,0.77 -14.79,1.18 -23.01,1.18 -63.35,0 -116.34,-21.15 -157.57,-62.83 -41.24,-41.69 -62.18,-95.32 -62.18,-159.27 0,-64.11 22.19,-118.22 64.47,-158.35 -23.01,-122.75 -21.07,-246.83 5.87,-369.3 23.62,-129.02 69.69,-254.07 136.7,-370.19 65.56,-118.41 144.45,-229.5 233.98,-329.55 84.12,-89.22 170.61,-165.76 258.14,-228.52 -38.4,-79.88 -68.24,-162.33 -88.9,-245.71 -17.41,-87.54 -28.8,-174.27 -34.34,-260.09 -160.2,-75.96 -287.72,-175.51 -379.38,-295.97 -92.28,-132.44 -153.08,-277.46 -181.89,-432.61 -19.09,-88.19 -28.74,-179.99 -28.94,-274.21l0 -7.64c0.23,-66.31 5.17,-133.82 14.78,-202.08 23.42,-170.43 66.33,-336.4 127.32,-493.07 65.76,-161.43 146.45,-312.68 240.19,-450.07 98.92,-142.72 208.76,-265.81 326.68,-365.93 119.29,-101.32 252.48,-177.14 395.74,-225.39 142.51,-48.04 289.51,-72.34 436.78,-72.34 16.1,-0.48 32.27,-0.77 48.43,-0.77 133.95,0 268.3,17.04 399.15,51.18 138.3,36.1 269.89,87.83 391.53,153.9 199.22,-89.46 407.57,-153.19 619.65,-189.7 196.31,-38.01 395.82,-57.26 593.46,-57.26 21.95,0 43.78,0.27 65.69,0.69l0.2 0c217.47,0 438.8,19.06 657.02,56.57 213.79,31.54 425.25,77.01 627.78,135.09 54.16,-34.85 121.99,-71.84 202.14,-110.18 95.87,-43.64 192.31,-75.32 287.49,-94.6 70.13,-16.83 139.35,-25.55 206.35,-25.83l6.56 0 1.24 0 1.23 0c25.52,0.14 50.68,1.6 75.45,4.25 103.27,10.4 187.77,50.75 250.82,119.8l-62.37 69.83c-60.17,-45.58 -119.99,-68.06 -181.75,-68.06 -5.25,0 -10.5,0.19 -15.83,0.47 -67.34,4.34 -133.86,21.71 -197.42,51.6 -65.14,30.79 -124.55,68.58 -176.56,112.36 -21.56,17.87 -40.89,34.34 -58.1,49.5 41.1,14.44 82.28,29.39 123.24,44.69 -2.21,1.38 -4.34,2.85 -6.5,4.31 -14.23,8.95 -27.49,18.59 -39.79,28.78 -55.25,-20.33 -110.65,-39.88 -166.4,-58.66 27.63,-27.99 66.87,-62.9 117.65,-104.86 55.26,-46.65 117.56,-86.31 186.71,-118.91 69.22,-32.62 140.71,-51.32 214.49,-55.93 6.01,-0.36 12.02,-0.56 17.96,-0.56 72.12,0 142.24,25.83 210.34,77.51 -55.39,-60.6 -129.1,-95.6 -221.39,-104.96 -25,-2.65 -50.44,-3.98 -76.19,-3.98 -64.46,0 -131.33,8.32 -200.55,25 -92.21,18.64 -184.44,48.95 -276.73,90.9 -87.58,41.9 -159.08,81.57 -214.41,118.85 -207.59,-60.6 -422,-107.25 -643.33,-139.84 -216.85,-37.29 -433.56,-55.94 -650.38,-55.94 -21.7,-0.41 -43.4,-0.69 -65.15,-0.69 -195.01,0 -390.08,18.92 -585.09,56.63 -216.77,37.26 -426.57,102.56 -629.53,195.78 -124.56,-69.91 -258.28,-123.52 -401.28,-160.81 -127.03,-33.17 -256.01,-49.72 -386.7,-49.72 -16.37,0 -32.74,0.22 -49.13,0.77 -142.92,0 -283.64,23.32 -422,69.89 -138.36,46.65 -265.19,118.91 -380.49,216.8 -115.29,97.89 -221.32,216.72 -318.23,356.57 -92.23,135.18 -170.64,282.01 -235.16,440.51 -59.96,153.88 -101.47,314.69 -124.54,482.54 -23.08,163.11 -18.44,319.28 13.81,468.43 27.71,149.2 85.32,286.69 172.98,412.57 92.21,121.2 221.39,219.09 387.4,293.67 4.62,93.22 16.16,186.5 34.6,279.7 23.07,93.22 57.61,184.12 103.76,272.73 -96.85,65.21 -191.42,146.83 -283.63,244.72 -87.67,97.9 -163.72,205.07 -228.32,321.66 -64.58,111.87 -108.39,230.7 -131.45,356.59 -27.63,125.88 -27.63,251.7 0,377.59 -46.08,32.6 -69.15,79.25 -69.15,139.85 0,51.24 16.16,93.2 48.43,125.82 32.25,32.59 73.76,49 124.54,49 18.44,0 32.27,-2.37 41.45,-7.04 110.73,149.13 249.1,247.1 415.09,293.67 110.73,31.07 224.52,46.65 341.4,46.65 58.38,0 117.57,-3.92 177.45,-11.68 179.89,-23.31 355.15,-74.56 525.76,-153.8 170.64,-74.58 315.91,-160.81 435.83,-258.76 258.28,-219.1 518.85,-512.77 781.77,-881.02 262.84,-368.22 523.47,-822.76 781.77,-1363.54 225.95,-466.12 433.47,-862.29 622.53,-1188.64 189.14,-330.94 364.39,-601.35 525.77,-811.11 137.4,46.3 273.2,98.94 407.43,158.02 0,0 0,0 0,0.06 9.81,18.72 20.99,37.78 33.7,56.98 3.11,4.75 6.44,9.5 9.81,14.17 -142.85,-65.21 -288.48,-123.38 -434.3,-173.65 -153.83,203.4 -322.53,465.29 -501.93,779.2 -187.83,324.12 -396.72,723 -621.09,1185.85 -258.08,540.42 -522.51,1001.53 -785.76,1370.39 -263.88,369.56 -529.56,668.89 -789.59,889.53 -123.3,100.68 -273.61,189.98 -447.35,265.94 -173.18,80.36 -354.64,133.5 -538.4,157.31 -60.45,7.83 -120.5,11.75 -179.89,11.87l-2.82 0zm5719.94 -4609.05c-21.48,0 -42.82,-0.55 -64.17,-1.74 -170.63,-13.97 -338.97,-44.27 -504.96,-90.9 -166.07,-46.57 -332.07,-102.59 -498.14,-167.8 -68.18,-29.53 -136.83,-57.87 -205.86,-84.89 23.01,-11.6 47.19,-18.86 72.83,-21.85 50.83,20.53 101.41,41.61 151.48,63.32 162.41,63.83 328.48,119.74 492.2,165.69 162.39,45.66 329.36,75.69 496.25,89.36 19.62,1.05 39.44,1.61 59.28,1.61 128.9,0 262.29,-21.99 397.62,-65.91 -12.38,20.05 -24.73,40.3 -37.17,60.68 -121.93,34.97 -241.71,52.43 -359.36,52.43z" />
		<path fill="#3AC1D0" fill-rule="nonzero" d="M1019.29 7583.11c-81.16,0 -161.5,-11.51 -241.03,-34.41 -124.47,-37.35 -230.57,-116.54 -318.23,-237.74 55.39,-32.62 83.02,-81.63 83.02,-146.84 0,-51.32 -18.44,-93.28 -55.34,-125.9 -32.25,-32.59 -71.49,-48.94 -117.56,-48.94 -27.69,0 -46.14,2.31 -55.4,7.06 -27.63,-116.61 -27.63,-233.2 0,-349.66 27.71,-121.22 71.49,-235.38 131.45,-342.62 64.6,-111.92 138.36,-212.12 221.41,-300.71 83.03,-93.22 170.61,-172.47 262.84,-237.76 96.85,167.85 228.3,293.75 394.37,377.61 124.56,62.97 256.83,94.38 396.94,94.38 46.68,0 94.22,-3.48 142.65,-10.47 36.87,-9.28 71.49,-16.26 103.74,-20.94 36.89,-9.36 73.79,-21.01 110.68,-34.99 -13.83,149.15 -50.72,256.39 -110.68,321.68 -49.38,53.69 -98.77,80.63 -148.09,80.63 -10.58,0 -21.21,-1.25 -31.78,-3.7 18.5,9.3 36.95,13.97 55.39,13.97 18.45,0 36.89,-4.67 55.34,-13.97 41.51,-18.7 78.4,-49 110.66,-90.96 36.89,-41.9 66.87,-90.85 89.95,-146.84 23.07,-60.6 34.6,-121.14 34.6,-181.75 175.26,-79.32 343.54,-207.52 504.97,-384.65 166.07,-177.12 309.05,-417.18 428.91,-720.21 133.74,-335.63 205.24,-638.58 214.5,-909 9.26,-274.95 -25.36,-517.38 -103.76,-727.11 -101.48,-265.75 -260.63,-482.53 -477.34,-650.32 217.12,-51.8 436.18,-77.71 657.21,-77.71 117.02,0 234.67,7.19 352.8,21.79 345.87,41.96 677.93,109.47 996.19,202.75 -96.85,93.22 -191.43,193.49 -283.64,300.66 -87.59,107.25 -172.98,219.1 -255.95,335.63 -18.44,28.01 -41.51,60.6 -69.2,97.89 -69.16,83.92 -140.65,130.57 -214.44,139.85 -13.88,1.88 -27.35,2.79 -40.39,2.79 -52.44,0 -98.93,-14.94 -139.48,-44.69 -50.78,-37.35 -85.32,-90.96 -103.76,-160.87 -13.89,-74.55 -2.35,-151.5 34.54,-230.75 -78.41,139.85 -108.39,277.4 -89.94,412.58 23.07,130.49 76.13,235.37 159.16,314.61 23.07,-32.61 53.04,-48.94 89.88,-48.94 27.69,0 50.77,11.65 69.2,34.97 23.08,18.64 34.62,44.27 34.62,76.87 0,28.01 -11.54,53.64 -34.62,76.95 -18.43,18.65 -41.51,28.01 -69.2,28.01 -18.39,0 -36.84,-4.69 -55.28,-14.06 -60.02,107.26 -115.36,212.13 -166.05,314.7 -50.72,97.89 -101.49,198.07 -152.19,300.65 -530.38,1095.5 -1023.89,1864.58 -1480.44,2307.52 -106.11,102.5 -226.03,191.03 -359.77,265.68 -133.72,79.25 -269.81,130.49 -408.17,153.81 -51.4,9 -102.51,13.47 -153.29,13.47zm-649.14 -641.01c58.78,0 109.42,21.13 150.66,62.76 44.98,39.66 69.02,93.97 69.02,159.26 0,63.04 -21.83,116.04 -63.64,155.84 75.37,91.54 164.49,153.19 265.41,183.41 74.68,21.58 151.01,32.4 228.1,32.4 48.16,0 96.5,-4.17 145.01,-12.63 132.35,-22.34 264.34,-72.12 392.43,-148.02 130.63,-72.89 248.41,-159.9 351.05,-259.11 450.48,-436.95 945.36,-1208.81 1470.77,-2294.12 51.05,-103.19 101.9,-203.66 152.73,-301.76 50.5,-102.09 106.8,-208.71 166.84,-316.08l21.89 -39.03 39.71 20.11c12.44,6.27 24.32,9.28 35.09,9.28 13.9,0 26.04,-4.97 35.38,-14.45 18.78,-18.92 20.94,-33.86 20.94,-43.5 0,-23.12 -8.58,-33.23 -17,-40.02l-7.4 -7.46c-9.46,-12.01 -19.27,-17.18 -32.6,-17.18 -21.62,0 -37.64,9.08 -51.95,29.19l-31.08 44.06 -38.97 -37.15c-90.07,-85.96 -148.31,-200.59 -173.04,-340.74 -20.11,-146.89 12.02,-295.69 95.27,-444.13l82.96 43.45c-32.95,70.65 -43.04,136.7 -30.96,201.83 15,56.29 43.18,100.41 85.32,131.34 32.47,23.95 69.36,35.75 111.69,35.75 11.13,0 22.6,-0.77 34.49,-2.38 61.68,-7.82 123.71,-49.22 184.71,-123.3 25.63,-34.56 48.23,-66.46 66.24,-93.83 83.87,-117.86 170.64,-231.61 258.77,-339.47 74.82,-87.01 151.5,-169.82 229.01,-247.38 -291.1,-80.85 -597.2,-141.04 -911.01,-179.1 -115.3,-14.17 -230.67,-21.22 -345.61,-21.22 -186.3,0 -371.72,18.57 -554.49,55.58 184.77,163.1 324.66,367.18 416.53,607.93 80.41,215.05 116.34,465.86 106.88,745.83 -9.34,274.54 -82.63,585.8 -217.8,925.07 -121.45,306.94 -269.02,554.32 -438.32,735 -156.39,171.63 -322.33,300.44 -493.1,382.77 -3.31,56.07 -15.66,112.48 -36.87,168.13 -25.36,61.65 -58.37,115.55 -98.57,161.29 -34.9,45.44 -78.13,80.77 -126.64,102.64 -23.75,11.99 -48.69,18.07 -73.92,18.07 -25.61,0 -51.46,-6.28 -76.66,-18.98l31.43 -88.26c4.49,1.05 11.59,2.72 21.21,2.72 23.83,0 62.85,-10.34 113.82,-65.83 42.77,-46.43 72.61,-120.51 89.2,-220.72 -14.59,4.39 -29.16,8.39 -43.59,12.09 -35.31,5.31 -68.59,12.07 -103.68,20.94 -52.44,7.6 -103.77,11.44 -154.05,11.44 -148.6,0 -287.93,-33.23 -417.87,-98.92 -158.47,-80.16 -288.4,-198.29 -386.69,-351.62 -74.61,57.1 -146.73,124.55 -214.85,201.08 -80.95,86.44 -153.29,184.68 -215.73,292.9 -57.2,102.29 -99.75,213.3 -126.28,329.42 -22.52,94.8 -25.42,190.4 -8.91,285.14 5.79,-0.2 12.02,-0.33 18.72,-0.33z" />
		<path fill="#3AC1D0" fill-rule="nonzero" d="M1545.39 6038.32c-90.14,0 -175.26,-18.64 -255.17,-55.93 -115.29,-55.93 -212.14,-144.52 -290.55,-265.73 87.67,-51.26 177.53,-90.84 269.82,-118.85 84.69,-28.56 167.65,-42.79 248.9,-42.79 11.61,0 23.2,0.28 34.73,0.83 92.23,4.67 177.55,32.62 255.95,83.92 82.97,46.65 152.17,121.23 207.51,223.79 -101.47,79.16 -212.15,132.8 -332.07,160.79 -47.66,9.3 -94.01,13.97 -139.12,13.97zm-26.73 -436.11c-76.05,0 -154.73,13.61 -234.39,40.43 -73.9,22.41 -146.31,52.57 -216.55,89.99 67.89,92.31 149.4,161.86 242.73,207.17 72.96,34 151.91,51.18 235.64,51.18 42.06,0 85.24,-4.34 129.59,-12.99 98.5,-23.03 192.67,-65.84 279.43,-127.28 -47.05,-76.1 -103.7,-133.08 -168.77,-169.67 -73.63,-48.04 -152.03,-73.73 -235.57,-77.98 -10.63,-0.56 -21.34,-0.85 -32.11,-0.85z" />
		<path fill="#3AC1D0" fill-rule="nonzero" d="M2058.09 5835.55c-59.96,-111.84 -133.72,-193.4 -221.33,-244.72 -83.02,-51.3 -175.25,-79.25 -276.72,-83.92 -21.56,-2.02 -43.1,-3.07 -64.86,-3.07 -76.13,0 -153.71,12.63 -232.67,38.04 -101.47,32.62 -198.26,76.89 -290.55,132.88 -73.76,-144.54 -115.29,-303.03 -124.53,-475.48 117.15,43.35 229.26,65.08 336.46,65.08 19.49,0 38.76,-0.77 57.91,-2.18 129.1,-9.36 246.74,-41.96 352.78,-97.89 110.73,-55.91 209.85,-130.57 297.46,-223.71 87.65,-97.95 161.43,-209.81 221.39,-335.63 106.11,-223.76 147.62,-426.53 124.56,-608.34 -18.45,-186.5 -96.85,-310.02 -235.22,-370.62 41.52,27.92 80.68,67.59 117.63,118.91 36.89,46.57 62.25,109.49 76.07,188.73 18.43,74.56 18.43,165.46 0,272.72 -18.44,107.17 -62.25,233.06 -131.47,377.58 -55.33,116.54 -126.83,223.79 -214.41,321.68 -83.03,93.2 -179.88,167.78 -290.55,223.71 -106.12,51.24 -221.39,81.62 -345.95,90.9 -8.56,0.36 -17.13,0.5 -25.69,0.5 -111.71,0 -225.34,-28.15 -340.97,-84.41 9.24,-172.47 36.95,-342.62 83.02,-510.4 46.16,-172.46 108.39,-340.32 186.79,-503.48 18.45,13.95 43.8,21.02 76.13,21.02 50.7,0 92.21,-16.35 124.48,-48.95 32.33,-32.68 48.49,-74.57 48.49,-125.89 0,-60.61 -25.42,-109.55 -76.12,-146.84 161.43,-247.1 352.78,-459.15 574.19,-636.27 221.39,-181.83 463.51,-312.32 726.35,-391.64 138.37,125.9 237.57,284.39 297.53,475.48 64.52,191.17 85.31,419.57 62.25,685.31 -23.07,265.67 -106.04,573.37 -249.04,922.96 -92.29,237.74 -193.76,433.52 -304.43,587.34 -110.66,153.82 -223.68,277.32 -338.98,370.6zm-562.36 -378.91c23.07,0 46,1.05 68.73,3.2 106.58,4.89 207.17,35.47 296.62,90.71 80.34,46.98 150.88,118.55 209.52,212.96 97.48,-85.74 194.47,-195.31 288.69,-326.29 107.82,-149.82 208.27,-343.92 298.7,-576.85 140.85,-344.3 223.46,-650.19 245.98,-909.85 22.38,-257.85 2.21,-481.9 -59.9,-665.82 -54.63,-174.05 -143.75,-320.89 -265.25,-437.64 -246.28,77.86 -476.57,203.95 -684.92,375.09 -206.55,165.33 -388.58,363.98 -541.86,591.31 40.55,42.17 61.08,94.27 61.08,155.22 0,63.95 -20.94,117.51 -62.18,159.19 -41.25,41.68 -94.22,62.84 -157.57,62.84 -19.42,0 -37.24,-2.16 -53.4,-6.43 -67.9,147.19 -123.1,299.69 -164.34,453.9 -42.2,153.63 -68.95,311.13 -79.58,468.79 99.06,44.2 196.54,66.54 292.35,66.54 8.01,0 15.96,-0.13 23.97,-0.49 116.39,-8.73 227.12,-37.84 327.5,-86.29 104.23,-52.73 197.36,-124.43 275.98,-212.75 84.26,-94.13 153.89,-198.51 207.09,-310.49 67.01,-139.99 109.89,-262.82 127.52,-365.18 17.19,-100.19 17.48,-185.37 0.68,-253.16 -13.04,-74.22 -35.5,-130.57 -67.2,-170.72 -34.82,-48.24 -70.48,-84.42 -107.07,-109.14l44.49 -82.65c154.45,67.65 242.94,205.34 263.11,409.22 24.05,188.85 -19.27,402.37 -128.82,633.48 -61.63,129.38 -138.66,246.13 -228.87,346.95 -91.74,97.61 -196.19,176.15 -311.27,234.26 -110.6,58.28 -235.43,93 -370.4,102.76 -20.11,1.54 -40.48,2.31 -61,2.31 -91.39,0 -186.51,-15.08 -284.26,-44.83 13.33,121.29 44.27,235.78 92.22,341.79 81.93,-45.82 167.94,-83.25 256.29,-111.73 83.38,-26.74 166.26,-40.21 247.37,-40.21z" />
		<path fill="#3AC1D0" fill-rule="nonzero" d="M771.37 5101.39c-207.52,-121.2 -336.7,-282.07 -387.4,-482.46 -46.15,-200.53 -43.8,-410.27 6.91,-629.31 50.7,-219.09 138.37,-428.91 262.91,-629.36 124.47,-205.08 258.22,-368.24 401.22,-489.45 92.21,-79.25 193.68,-144.46 304.35,-195.78 115.3,-55.93 232.95,-93.22 352.86,-111.86 62.23,-9.35 123.93,-13.96 185.07,-13.96 61.05,0 121.64,4.61 181.54,13.96 124.54,18.64 242.12,58.24 352.86,118.85 -225.98,111.84 -445.09,265.66 -657.24,461.5 -207.5,195.78 -391.94,414.88 -553.39,657.23 -4.62,-4.61 -13.88,-6.97 -27.69,-6.97 -46.15,0 -85.31,16.33 -117.64,48.93 -32.27,32.68 -48.43,74.65 -48.43,125.9 0,46.64 9.26,81.62 27.71,104.87 -87.61,167.86 -156.81,340.3 -207.58,517.44 -46.08,172.47 -71.44,342.62 -76.06,510.47zm1125.84 -2504.84c-58.98,0 -118.47,4.46 -178.15,13.34 -114.54,17.88 -228.79,54.11 -339.39,107.73 -107.07,49.64 -205.86,113.17 -294.41,189.21l-0.21 0.22c-138.44,117.29 -270.09,278.15 -391.4,477.99 -121.44,195.51 -207.93,402.37 -257.26,615.33 -48.83,210.94 -51.11,415.43 -6.89,607.87 41.43,163.74 141.95,301.63 298.97,410.2 9.73,-144.81 34.46,-292.34 73.84,-439.81 49.25,-171.75 116.06,-340.72 199.01,-503.27 -13.75,-28.62 -20.72,-64.38 -20.72,-106.68 0,-64.1 20.87,-117.66 62.11,-159.34 40.12,-40.49 91.88,-62.9 146.37,-62.9 3.94,0 7.88,0.06 11.81,0.34 158.34,-233.55 340.5,-447.97 541.72,-637.74 188.46,-174.01 384.64,-316.84 584.63,-425.78 -81.46,-35.52 -166.97,-60.11 -255.19,-73.37 -57.47,-8.88 -115.92,-13.34 -174.84,-13.34zm5670.36 636.35c18.31,-37.29 36.68,-74.44 55.07,-111.29l0 -0.08c64.22,-62.62 111.83,-125.18 142.76,-187.82 38.48,-74.14 59.77,-144.32 63.7,-210.43 14.92,-26.76 29.71,-53 44.35,-78.69 0.36,4.53 0.69,9.2 0.91,13.89 10.08,90.41 -12.58,191.31 -67.5,297.24 -45.67,92.29 -126.2,185.7 -239.29,277.18z" />
		<path fill="#3AC1D0" fill-rule="nonzero" d="M6406.14 6303.15l-2.37 0c-7.6,-0.05 -15.1,-0.41 -22.56,-0.91 -78.48,-5.66 -143.47,-42.59 -193.21,-109.68 -47.74,-64.39 -73.43,-162.28 -78.48,-299.33 -9.4,-133.14 9.59,-302.6 56.57,-502.08 46.42,-201.86 124.01,-437.15 230.53,-699.33l7.66 -18.78 -36.76 -32.54c-44,-38.97 -74.53,-91.82 -90.62,-156.97 -11.75,-70.38 4.07,-142.09 46.27,-216.72l83.53 42.1c-10.51,24.72 -13.9,48.47 -10.51,72.61 4.56,14.53 13.55,28.42 26.18,36.1 10.03,6.02 20.25,9.01 31.72,9.01 4.07,0 8.28,-0.42 12.63,-1.11 16.23,-5.03 40.01,-24.44 64.46,-55.24 54.99,-120.16 119.78,-250.92 192.59,-388.89 61.48,-116.61 124.61,-234.75 189.27,-354.55 -53.59,1.38 -105.82,2.08 -156.53,2.08 -153.91,0 -293.92,-6.28 -418.2,-18.84 -189.06,-23.89 -346.91,-62.63 -470.08,-115.35 -194.4,-74.78 -325.36,-160.79 -398.32,-261.83 7.26,3.29 14.59,6.63 21.83,9.98 28.04,12.15 56.16,24.08 84.28,35.9 72.25,63.12 175.74,120.57 310.37,172.45 119.93,51.26 272.1,88.52 456.62,111.86 122.95,12.43 260.21,18.64 411.85,18.64 75.84,0 155.36,-1.54 238.45,-4.69 -78.41,144.54 -154.52,286.69 -228.36,426.54 -73.79,139.87 -138.31,270.43 -193.64,391.64 -32.33,41.88 -64.58,67.51 -96.91,76.87 -6.91,1.19 -13.69,1.74 -20.31,1.74 -19.89,0 -38.48,-5.24 -55.75,-15.71 -23.08,-13.96 -39.24,-37.29 -48.42,-69.97 -4.64,-32.59 0,-65.27 13.8,-97.87 -36.89,65.28 -50.69,125.88 -41.51,181.81 13.82,55.93 39.24,100.27 76.13,132.86 13.81,-32.59 36.82,-48.94 69.15,-48.94 50.77,0 76.13,25.63 76.13,76.87 0,51.32 -25.36,76.95 -76.13,76.95l-27.63 0c-106.12,261.05 -182.17,491.75 -228.3,692.2 -46.16,195.86 -64.53,358.97 -55.34,489.53 4.62,125.88 27.63,216.72 69.14,272.66 41.51,55.91 94.58,86.21 159.16,90.9 7.18,0.55 14.37,0.77 21.69,0.77 58.3,0 120.2,-16.56 185.83,-49.72 78.41,-37.22 156.81,-83.85 235.22,-139.84 78.4,-60.61 163.72,-139.87 255.93,-237.74 92.22,-97.9 168.34,-200.48 228.3,-307.65 -27.63,149.13 -39.23,272.73 -34.53,370.62 4.55,125.88 27.63,216.72 69.15,272.66 41.51,55.91 94.55,86.21 159.08,90.9 7.18,0.55 14.45,0.77 21.69,0.77 58.3,0 120.27,-16.56 185.89,-49.72 78.34,-37.22 156.81,-83.85 235.15,-139.84 55.4,-41.9 115.36,-95.6 179.88,-160.81 69.22,-65.28 131.47,-132.87 186.79,-202.77 55.33,-74.64 101.49,-149.19 138.36,-223.77 36.89,-79.24 57.63,-151.51 62.25,-216.72 4.62,-74.63 -9.19,-128.19 -41.46,-160.87 -27.68,-32.61 -59.95,-51.26 -96.9,-55.93 -6.15,-0.77 -12.16,-1.19 -18.04,-1.19 -29.43,0 -55.75,9.78 -78.76,29.12 -27.68,18.64 -34.6,46.65 -20.77,83.99 0,-28.06 11.53,-46.65 34.6,-55.99 17.27,-10.47 35.85,-15.71 55.75,-15.71 6.64,0 13.39,0.55 20.3,1.74 27.71,4.61 50.78,20.96 69.22,48.94 23.01,28.01 32.33,67.59 27.63,118.91 -4.62,69.89 -25.36,142.17 -62.25,216.73 -36.87,69.88 -83.02,139.84 -138.36,209.75 -50.7,65.27 -108.38,128.19 -172.96,188.79 -59.96,60.61 -119.86,111.85 -179.82,153.89 -64.6,48.03 -119.15,72.06 -163.72,72.06 -15.88,0 -30.47,-3.01 -43.8,-9.17 -46.14,-27.98 -71.5,-97.95 -76.12,-209.79 0,-107.19 20.72,-247.04 62.23,-419.49 46.16,-177.14 119.94,-391.64 221.41,-643.33 193.7,-261 387.4,-524.43 581.1,-790.11 198.32,-265.73 387.38,-538.46 567.28,-818.1 433.53,-88.59 786.31,-132.86 1058.41,-132.86 22.74,-0.42 45.04,-0.56 66.95,-0.56 240.6,0 432.71,23.46 576.46,70.44 179.88,56.01 304.36,125.9 373.52,209.82 69.22,83.85 101.55,165.48 96.91,244.72 0,74.58 -27.69,139.85 -83.03,195.78 -55.34,55.93 -115.29,88.53 -179.89,97.89 96.85,0 175.25,-39.66 235.23,-118.91 59.96,-83.85 85.3,-181.74 76.11,-293.67 -4.62,-111.84 -50.69,-226.08 -138.36,-342.59 -87.67,-121.23 -230.59,-219.04 -428.91,-293.68 -147.55,-55.93 -338.98,-86.23 -574.19,-90.9 -24.32,-0.99 -49.25,-1.48 -74.8,-1.48 -217.2,0 -480.53,35.48 -790,106.34 23.07,-37.29 60.04,-100.19 110.74,-188.72 50.69,-88.61 99.12,-181.83 145.27,-279.72 46.14,-102.56 78.41,-198.13 96.85,-286.68 23.01,-93.28 13.81,-160.87 -27.63,-202.75 -28.74,-25.41 -61.7,-38.12 -98.71,-38.12 -10.57,0 -21.5,1.03 -32.76,3.07 -50.77,4.75 -101.53,21.02 -152.17,49 -50.77,27.93 -99.2,60.61 -145.27,97.89 -41.59,37.29 -73.84,67.59 -96.93,90.91 -27.63,27.92 -64.58,72.2 -110.65,132.8 -46.16,60.6 -99.14,135.24 -159.16,223.79 -59.96,88.53 -126.77,188.79 -200.61,300.64 -69.15,111.92 -140.64,228.45 -214.42,349.66 -156.81,46.57 -313.62,88.55 -470.43,125.82 36.89,-60.61 76.12,-121.21 117.57,-181.81 41.51,-60.53 80.75,-123.5 117.65,-188.72 18.44,-37.36 53.04,-100.26 103.76,-188.81 55.32,-88.59 106.03,-184.11 152.17,-286.69 46.15,-102.56 78.4,-198.13 96.85,-286.68 23.06,-93.28 13.82,-160.87 -27.63,-202.75 -28.75,-25.41 -61.63,-38.12 -98.71,-38.12 -10.58,0 -21.48,1.03 -32.74,3.07 -50.72,4.75 -101.49,21.02 -152.19,49 -50.7,27.93 -99.2,60.61 -145.28,97.89 -41.51,37.29 -73.84,67.59 -96.91,90.91 -32.27,27.92 -78.34,83.93 -138.3,167.79 -60.04,79.25 -129.18,177.2 -207.58,293.66 -73.79,116.53 -154.46,247.1 -242.13,391.64 -3.66,5.85 -7.38,11.79 -11.04,17.73 -0.08,0 -0.08,0 -0.08,0 -7.05,2.79 -14.08,5.3 -21.13,7.68 -16.45,6 -32.89,11.66 -49.32,16.96 14.1,-22.82 28.12,-45.38 42.14,-67.73 87.45,-144.18 168.26,-274.95 242.26,-391.76 79.36,-117.94 149.68,-217.57 209.72,-296.88 62.03,-86.78 109.77,-144.32 145.05,-174.97 20.94,-21.36 53.89,-52.3 96.25,-90.35 49.87,-40.42 101.06,-74.92 153.97,-104.03 56.02,-30.94 113.35,-49.3 170.34,-54.53 9.26,-1.76 18.58,-2.87 27.78,-3.36l19.27 0c43.31,2.18 84.47,18.92 119.37,49.79 56.02,56.41 69.49,139.72 42.28,249.82 -18.67,89.79 -52.37,189.48 -99.62,294.72 -46.83,104.1 -99.06,202.41 -155.22,292.4 -49.19,85.82 -83.65,148.52 -101.55,184.68 -38.47,68.22 -78.75,132.94 -120.95,194.59 -18.58,27.02 -36.68,54.25 -54.36,81.35 112.51,-28.36 225.81,-59.42 338.35,-92.59 70.53,-115.7 138.91,-227.27 205.23,-334.38 74.67,-113.25 141.61,-213.65 201.71,-302.32 60.31,-89.16 114.32,-165.13 160.61,-225.95 47.8,-62.76 85.31,-107.72 114.67,-137.39 23.47,-23.81 56.43,-54.75 98.84,-92.8 49.88,-40.42 101.06,-74.92 153.99,-104.03 56.03,-30.94 113.36,-49.3 170.28,-54.53 9.32,-1.76 18.59,-2.87 27.77,-3.36l19.27 0c43.37,2.18 84.55,18.92 119.44,49.79 55.95,56.41 69.42,139.72 42.28,249.82 -18.72,89.79 -52.36,189.48 -99.69,294.72 -46.76,99.27 -96.22,194.51 -147.35,283.81 -20.72,36.16 -39.16,68.09 -55.26,95.74 266.72,-55.88 499.45,-84.22 694.52,-84.22 26.12,0 51.46,0.56 76.19,1.55 238.46,4.67 436.86,36.29 588.78,93.91 205.91,77.42 357.47,181.73 450.25,310 92.48,123.02 142.22,247.24 147.27,368.52 10.01,120.99 -18.5,230.4 -84.96,323.34 -69.71,92.23 -161.31,138.45 -273.08,138.45l-6.56 -94.05c54.79,-7.88 105.01,-35.61 153.44,-84.56 46.62,-47.12 69.28,-100.18 69.28,-162.33 4.01,-69.25 -25.01,-140.48 -86.01,-214.48 -62.93,-76.4 -181.12,-141.89 -351.4,-194.87 -138.5,-45.33 -326.68,-68.5 -560.17,-68.5 -22.44,0 -45.31,0.21 -68.65,0.63 -264.51,0 -610.95,43.07 -1030.81,128.05 -176.71,273.9 -364.53,544.4 -558.43,804.21 -192.25,263.64 -384.77,525.53 -577.38,785.06 -98.98,246.05 -172.06,458.58 -217.23,631.88 -40.22,167.16 -60.67,304.57 -60.67,407.49 3.74,89.86 22.74,150.66 53.4,169.3 5.39,2.38 11.81,3.5 19.13,3.5 31.29,0 79.52,-21.51 136.64,-64.02 58.38,-40.85 116.69,-90.77 174.49,-149.15 63.84,-59.97 120.35,-121.69 169.27,-184.6 53.59,-67.73 98.57,-135.87 133.85,-202.77 33.37,-67.51 52.72,-134.41 56.87,-197.72 3.52,-39.17 -2.21,-67.59 -16.94,-85.54 -17.68,-26.33 -31.62,-31 -40.88,-32.54 -4.43,-0.69 -8.72,-1.11 -12.79,-1.11 -11.4,0 -21.68,2.93 -31.63,9.01l-6.71 3.42c-3.66,1.47 -5.17,2.02 -5.17,12.07l-90.51 16.55c-21.48,-57.87 -7.46,-108.86 38.62,-139.85 27.84,-23.81 64.6,-37.07 104.6,-37.07 7.87,0 15.88,0.55 23.97,1.52 48.56,6.16 91.11,30.44 126.55,72.15 39.58,39.78 58.08,106.12 52.64,194.51 -5.05,71.21 -27.49,149.77 -66.6,233.9 -38.42,77.64 -86.41,155.29 -143.27,231.94 -57.4,72.56 -121.78,142.5 -192.31,208.98 -64.66,65.49 -126.91,121.07 -183.76,164.08 -81.3,58.09 -162.88,106.56 -243.3,144.82 -71,35.88 -140.43,54.24 -205.99,54.24l-2.33 0c-7.5,-0.05 -15,-0.41 -22.46,-0.91 -78.41,-5.66 -143.42,-42.59 -193.16,-109.68 -47.79,-64.39 -73.48,-162.28 -78.46,-299.33 -2.43,-50.34 -0.62,-107.81 5.31,-171.7 -36.19,47.7 -75.78,94.27 -118.47,139.65 -93.46,99.14 -181.4,180.76 -261.45,242.63 -81.73,58.37 -163.25,106.84 -243.71,145.1 -70.95,35.88 -140.38,54.24 -205.8,54.24zm61.42 -1699.94c-10.02,0 -18.31,1.55 -26.26,20.33l-16.58 39.03 42.84 0c24.93,0 29.28,-4.42 29.28,-29.69 0,-25.2 -4.35,-29.67 -29.28,-29.67z" />
		<path fill="#3AC1D0" fill-rule="nonzero" d="M5576.02 3278.78c-28.12,-11.82 -56.24,-23.75 -84.28,-35.9 -7.24,-3.35 -14.57,-6.69 -21.83,-9.98 -3.37,-4.67 -6.7,-9.42 -9.81,-14.17 -12.71,-19.2 -23.89,-38.26 -33.7,-56.98 24.87,10.89 49.66,22.07 74.39,33.37 19.42,28.92 44.49,56.76 75.23,83.66zm1672.06 -220.92c12.44,-20.38 24.79,-40.63 37.17,-60.68 16.43,-5.3 32.87,-10.96 49.32,-16.96 7.05,-2.38 14.08,-4.89 21.13,-7.68 -13.26,21.22 -26.45,42.59 -39.71,64.17 -22.73,7.67 -45.33,14.72 -67.91,21.15z" />
		<path fill="#3AC1D0" fill-rule="nonzero" d="M7248.08 3057.92c0,0 0,-0.06 0,-0.06 22.58,-6.43 45.18,-13.48 67.91,-21.15 0,0 -0.08,0 -0.08,0.05 -22.65,7.68 -45.31,14.75 -67.83,21.16z" />
		<path fill="#3AC1D0" fill-rule="nonzero" d="M7315.91 3036.76c0,-0.05 0.08,-0.05 0.08,-0.05 13.26,-21.58 26.45,-42.95 39.71,-64.17 0,0 0,0 0.08,0 -13.28,21.22 -26.53,42.65 -39.79,64.22l-0.08 0z" />
		<path fill="#3AC1D0" fill-rule="nonzero" d="M5779.39 2749.17c-22.32,-5.03 -43.66,-7.6 -64.03,-7.6 -9.2,0 -18.17,0.55 -26.94,1.54 -24.68,-9.91 -49.41,-19.69 -74.14,-29.27 31.78,-12.9 65.5,-19.4 101.22,-19.4 23.83,0 48.48,2.85 74.04,8.59 -31.16,-10.49 -61.28,-15.71 -90.49,-15.71 -33.99,0 -66.73,7.12 -98.08,21.35 0,0 0,0 0,0 -19.35,-7.46 -38.62,-14.8 -57.97,-22.04 48.49,-31.08 100.58,-46.73 155.5,-46.73 34.27,0 69.55,6.07 105.82,18.31l-24.93 90.96z" />
		<path fill="#3AC1D0" fill-rule="nonzero" d="M5615.59 2764.96c-18.5,-7.26 -37.01,-14.39 -55.59,-21.51 2.68,-1.88 5.39,-3.7 8.15,-5.52 14.92,-9.62 30.25,-17.66 46.13,-24.09 24.73,9.58 49.46,19.36 74.14,29.27 -25.64,2.99 -49.82,10.25 -72.83,21.85zm-66.79 -25.77c-17.33,-6.57 -34.74,-13.06 -52.09,-19.47 12.3,-10.19 25.56,-19.83 39.79,-28.78 2.16,-1.46 4.29,-2.93 6.5,-4.31 19.35,7.24 38.62,14.58 57.97,22.04 -13.48,6.08 -26.75,13.56 -39.73,22.29 -4.21,2.65 -8.37,5.44 -12.44,8.23z" />
		<path fill="#3AC1D0" fill-rule="nonzero" d="M5615.59 2764.96c-18.5,-7.26 -37.01,-14.39 -55.59,-21.51 0,0 0,0 0,0 18.58,7.12 37.09,14.25 55.59,21.51l0 0zm-66.85 -25.77c-17.35,-6.57 -34.68,-13.06 -52.08,-19.41 0,0 0,0 0.05,-0.06 17.35,6.41 34.76,12.9 52.09,19.47 0,0 0,0 -0.06,0z" />
		<path fill="#3AC1D0" fill-rule="nonzero" d="M5548.8 2739.19c0,0 0,0 -0.06,0 0.06,0 0.06,0 0.06,0 4.07,-2.79 8.23,-5.58 12.44,-8.23 12.98,-8.73 26.25,-16.21 39.73,-22.29 0,0 0,0 0,0 -13.48,6.16 -26.75,13.56 -39.73,22.29 -4.21,2.71 -8.37,5.5 -12.44,8.23z" />
		<path fill="#3AC1D0" fill-rule="nonzero" d="M6629.48 6096.49c-16.23,0 -31.01,-3.01 -44.35,-9.17 -46.15,-27.98 -69.22,-97.95 -69.22,-209.79 -4.56,-107.19 13.88,-247.04 55.4,-419.49 46.07,-177.14 119.85,-391.64 221.33,-643.33 161.44,-214.43 322.87,-431.23 484.32,-650.26 161.35,-223.77 320.45,-449.85 477.26,-678.31 73.84,-9.28 147.55,-20.94 221.39,-34.91 78.41,-14.04 159.1,-32.68 242.13,-55.94 -101.48,172.47 -198.33,344.94 -290.55,517.38 -87.65,172.53 -166.05,333.34 -235.22,482.55 -32.25,41.88 -64.52,67.51 -96.85,76.87 -8.06,1.19 -15.88,1.74 -23.34,1.74 -22.52,0 -42.41,-5.24 -59.68,-15.71 -18.45,-13.96 -32.25,-37.29 -41.51,-69.97 -9.13,-32.32 -4.7,-64.64 13.39,-97.04 0.14,-0.27 0.35,-0.55 0.49,-0.83 -0.14,0.28 -0.35,0.56 -0.49,0.83 -36.54,64.94 -50.21,125.27 -41.02,180.98 13.8,55.93 39.24,100.27 76.11,132.86 13.82,-32.59 36.83,-48.94 69.16,-48.94 50.7,0 76.06,25.63 76.06,76.87 0,51.32 -25.36,76.95 -76.06,76.95l-27.71 0c-69.14,172.47 -124.48,328.64 -165.99,468.49 -9.26,-46.63 -29.98,-79.3 -62.31,-97.89 -32.27,-23.31 -64.52,-34.97 -96.79,-34.97 -32.33,0 -60.02,11.66 -83.02,34.97 -23.07,18.59 -27.71,44.28 -13.83,76.95 0,-28.06 11.55,-46.65 34.54,-55.99 17.27,-10.47 35.86,-15.71 55.75,-15.71 6.64,0 13.41,0.55 20.39,1.74 27.7,4.61 50.69,20.96 69.14,48.94 23.06,28.01 32.33,67.59 27.71,118.91 -4.65,69.89 -25.42,142.17 -62.25,216.73 -36.95,69.88 -83.03,139.84 -138.37,209.75 -50.77,65.27 -108.44,128.19 -172.96,188.79 -59.98,60.61 -117.59,111.85 -172.98,153.89 -67.91,48.03 -124.7,72.06 -170.07,72.06zm1490.86 -2627.25c-46.27,10.96 -91.94,20.54 -136.56,28.5 -66.87,12.62 -135.14,23.67 -202.97,32.59 -152.24,221.55 -308.99,444.07 -466.07,661.92 -160.53,217.91 -320.87,433.17 -481.14,646.05 -98.98,246.05 -172,458.52 -217.12,631.74 -40.06,166.47 -58.22,303.17 -53.87,405.45 0.06,93 16.57,153.13 46.55,171.34 5.46,2.38 12.1,3.64 19.7,3.64 32.33,0 83.16,-21.79 143.88,-64.8 52.03,-39.44 108.52,-89.71 166.76,-148.51 63.75,-59.97 120.34,-121.69 169.24,-184.6 53.61,-67.73 98.51,-135.87 133.88,-202.77 33.31,-67.51 52.63,-134.41 56.86,-197.72 3.51,-39.17 -2.21,-67.59 -16.99,-85.54 -17.69,-26.33 -31.65,-31 -40.83,-32.54 -4.49,-0.69 -8.72,-1.11 -12.85,-1.11 -11.39,0 -21.63,2.93 -31.58,9.01l-6.76 3.42c-3.6,1.47 -5.11,2.02 -5.11,12.07l-89.74 18.57c-22.11,-52.07 -12.08,-100.33 27.57,-132.45 28.18,-28.76 67.97,-44.25 111.28,-44.25 40.75,0 84.61,13.61 124.97,42.65 8.28,4.75 16.16,10.41 23.42,16.9 36.87,-112.97 81.93,-235.86 134.43,-366.78l7.65 -19.12 -36.67 -32.4c-44.08,-38.97 -74.53,-91.82 -90.63,-156.97 -11.74,-70.08 3.94,-141.45 45.73,-215.73l0.55 -0.99 81.16 46.85 -0.33 0.71c-11.97,21.3 -14.86,40.69 -9.21,60.88 6.23,21.99 14.73,37.56 24.6,45.03 6.85,3.97 17.35,6.35 30.47,6.35 5.52,0 11.53,-0.42 17.95,-1.33 15.14,-4.81 38.89,-24.28 63.43,-55.16 68.73,-148.02 147.27,-309.17 233.62,-479.04 75.08,-140.48 153.78,-281.72 234.73,-421.86zm-532.11 1133.97c-9.95,0 -18.25,1.55 -26.18,20.33l-16.59 39.03 42.77 0c24.93,0 29.35,-4.42 29.35,-29.69 0,-25.2 -4.42,-29.67 -29.35,-29.67z" />
		<path fill="#3AC1D0" fill-rule="nonzero" d="M7996.41 4618.93c9.2,-23.32 18.44,-46.57 27.63,-69.91 13.82,-23.31 25.43,-46.63 34.62,-69.94 73.78,-163.19 156.8,-347.31 249.01,-552.43 92.23,-205.07 191.43,-412.51 297.47,-622.26 64.59,-14.03 129.17,-27.99 193.7,-41.96 64.58,-13.95 126.82,-28 186.78,-41.96 -156.81,242.35 -320.53,480.15 -491.14,713.22 -170.71,233.07 -336.7,461.53 -498.07,685.24zm886.35 -1326.53c-24.38,5.36 -49.03,10.8 -74.11,16.19l-171.95 37.28c-101.88,202.14 -198.18,404.05 -286.46,600.33 -43.31,96.43 -84.63,188.16 -123.93,275.31 75.92,-104.33 152.74,-209.62 230.57,-315.96 146.32,-199.74 289.24,-405.58 425.88,-613.15z" />
		<path fill="#3AC1D0" fill-rule="nonzero" d="M6875.68 4618.93c9.18,-23.32 18.45,-46.57 27.63,-69.91 13.88,-23.31 25.42,-46.63 34.6,-69.94 60.04,-130.51 126.83,-275.03 200.67,-433.52 73.78,-163.19 149.92,-330.96 228.24,-503.43 50.72,-4.67 101.47,-9.34 152.25,-13.95 55.34,-9.36 108.38,-18.73 159.1,-28.01 -129.18,195.78 -262.92,386.89 -401.21,573.37 -133.74,186.42 -267.56,368.25 -401.28,545.39zm702.33 -1052.99c-16.86,2.95 -33.94,5.88 -51.27,8.81l-128.68 11.93c-74.41,163.74 -146.73,323.2 -216.99,478.49 -27.22,58.58 -53.53,115.21 -78.89,169.81 45.8,-62.7 91.46,-125.83 136.91,-189.23 115.65,-155.84 229.28,-316.71 338.92,-479.81z" />
		<path fill="#3AC1D0" fill-rule="nonzero" d="M7463.67 3339.3c7.95,-16.4 15.88,-32.81 23.83,-49.14 20.11,-12.79 39.24,-25.85 57.42,-39.25 7.65,-5.99 15.19,-12.01 22.65,-18.01 -6.77,13.76 -13.47,27.51 -20.25,41.33 32.69,-6.22 64.8,-11.72 96.03,-16.61 55.54,-12.09 113.77,-26.6 171.46,-42.87 42.2,-64.44 82.75,-129.38 120.74,-193.4 46.7,-70.88 90.56,-140.76 131.47,-209.76 13.8,-23.23 45.94,-79.03 96.49,-167.22 54.36,-91.6 104.73,-188.79 150.12,-289.53 49.38,-99.99 82.96,-192.66 100.51,-276.93 25.06,-96.49 -5.11,-110.46 -15.14,-115.05l-10.91 -2.1c-13.55,0 -30.95,8.09 -51.67,24.36 -39.11,30.8 -78.95,68.84 -118.55,113.25 -33.78,42.81 -67.69,90.85 -99.04,140.62 -28.12,47.35 -49.4,80.72 -64.33,100.82 -57.06,91.32 -117.91,193.69 -181.05,304.78 -2.07,-26.19 -5.87,-51.04 -11.47,-74.44 53.26,-92.37 104.94,-178.6 155.16,-258.68 13.81,-18.64 34.6,-51.32 62.23,-97.89 32.33,-51.26 66.95,-100.26 103.77,-146.83 41.51,-46.65 83.02,-86.24 124.53,-118.91 29.1,-22.82 55.83,-34.2 80.42,-34.2 10.5,0 20.58,2.07 30.26,6.27 50.69,23.31 64.58,79.25 41.51,167.78 -18.45,88.6 -52.99,184.12 -103.76,286.68 -46.14,102.58 -96.83,200.47 -152.17,293.75 -50.72,88.53 -83.04,144.46 -96.85,167.78 -41.51,69.88 -85.32,139.85 -131.47,209.73 -41.51,69.97 -85.3,139.87 -131.45,209.81 -64.52,18.65 -129.1,34.92 -193.7,48.95 -59.96,9.3 -122.19,20.96 -186.79,34.91z" />
		<path fill="#3AC1D0" fill-rule="nonzero" d="M7487.5 3290.16c14.24,-29.41 28.53,-58.58 42.83,-87.64 33.85,-27.01 64.6,-53.97 92.31,-80.91 -18.39,36.85 -36.76,74 -55.07,111.29 -7.46,6 -15,12.02 -22.65,18.01 -18.18,13.4 -37.31,26.46 -57.42,39.25zm341.6 -566.88c0.49,-7.54 0.69,-15.02 0.69,-22.34 0.08,-13.48 -0.69,-26.82 -2.14,-39.88 -0.49,-9.21 -1.25,-18.21 -2.13,-27.02 12.22,-21.63 24.38,-42.93 36.46,-63.89 5.6,23.4 9.4,48.25 11.47,74.44 -14.64,25.69 -29.43,51.93 -44.35,78.69z" />
		<path fill="#3AC1D0" fill-rule="nonzero" d="M7829.79 2700.94c0.08,-13.48 -0.69,-26.74 -2.14,-39.88 -0.49,-9.21 -1.25,-18.21 -2.13,-27.02l0 0c0.88,8.81 1.64,17.81 2.13,27.02 1.45,13.06 2.22,26.4 2.14,39.88z" />
		<path fill="#3AC1D0" fill-rule="nonzero" d="M8757.38 2996.69c64.52,-125.82 129.12,-247.03 193.7,-363.56 64.52,-116.54 126.77,-223.77 186.79,-321.66 13.82,-18.64 34.62,-51.32 62.25,-97.89 32.33,-51.26 66.87,-100.26 103.76,-146.83 41.51,-46.65 83.03,-86.24 124.54,-118.91 29.02,-22.82 55.83,-34.2 80.34,-34.2 10.58,0 20.66,2.07 30.33,6.27 50.7,23.31 64.58,79.25 41.52,167.78 -18.45,88.6 -53.05,186.49 -103.77,293.67 -50.77,102.56 -103.82,202.82 -159.08,300.71 -55.41,93.22 -92.28,156.12 -110.73,188.8 -73.78,18.58 -147.57,39.6 -221.41,62.92 -73.78,18.64 -149.83,39.58 -228.24,62.9zm751.44 -1035.93c-13.53,0 -31,8.09 -51.73,24.36 -39.11,30.8 -78.96,68.84 -118.47,113.25 -33.78,42.81 -67.69,90.85 -99.06,140.62 -28.12,47.35 -49.39,80.72 -64.31,100.82 -57,93.36 -119.51,201.03 -183.4,316.36 -47.74,86.23 -95.48,175.06 -142.59,264.97 42.41,-11.8 84.22,-22.9 125.1,-33.23 65.43,-20.74 134.02,-40.42 202.07,-58.01 20.52,-35.63 54.29,-93.08 101.27,-172.11 54.28,-96.15 107.4,-196.55 157.28,-297.59 48.56,-102.56 82.28,-197.8 99.88,-282.29 25.09,-96.49 -5.17,-110.46 -15.11,-115.05l-10.93 -2.1z" />
		<path fill="#3AC1D0" fill-rule="nonzero" d="M7530.33 3202.52c0,0 0,-0.06 0,-0.06 33.85,-27.01 64.6,-53.91 92.31,-80.93l0 0.08c-27.71,26.94 -58.46,53.9 -92.31,80.91zm298.77 -479.24c0.49,-7.54 0.69,-15.02 0.69,-22.34 0,7.32 -0.2,14.8 -0.69,22.34l0 0z" />
		<path fill="#3AC1D0" fill-rule="nonzero" d="M5500.79 3195.12c-24.73,-11.3 -49.52,-22.48 -74.39,-33.37 0,-0.06 0,-0.06 0,-0.06 24.79,10.89 49.6,22.05 74.33,33.43 0,0 0,0 0.06,0z" />
		<path fill="#3AC1D0" fill-rule="nonzero" d="M5576.1 3278.84l-0.08 -0.06c-30.74,-26.9 -55.81,-54.74 -75.23,-83.66 -0.06,0 -0.06,0 -0.06,0 0,0 0,0 0,0 19.48,28.92 44.62,56.84 75.37,83.72zm-16.1 -535.39l0 0c2.63,-1.88 5.39,-3.7 8.15,-5.52 14.84,-9.62 30.25,-17.66 46.07,-24.15 0,0 0,0 0.06,0.06 -15.88,6.43 -31.21,14.47 -46.13,24.09 -2.76,1.82 -5.47,3.64 -8.15,5.52z" />
		<path fill="#3AC1D0" fill-rule="nonzero" d="M7487.44 3290.16c14.3,-29.41 28.59,-58.58 42.89,-87.7 0,0 0,0 0,0 0,0 0,0.06 0,0.06 -14.3,29.06 -28.59,58.23 -42.83,87.64 0,0 0,0 -0.06,0zm338.08 -656.12c0,-0.06 0,-0.06 0,-0.06 12.22,-21.57 24.38,-42.87 36.46,-63.89l0 0.06c-12.08,20.96 -24.24,42.26 -36.46,63.89z" />
		<path fill="#3AC1D0" fill-rule="nonzero" d="M9025.9 6267.96l-2.56 0c-54.05,-0.33 -106.76,-11.02 -157.44,-32.12 -84.75,-42.73 -151.75,-107.67 -202.31,-194.45 -58.65,-103.75 -95.54,-230.06 -110.05,-375.91 -1.94,-30.36 -3,-61.22 -3.17,-92.55l0 -14.5c0.39,-118.7 13.21,-244.18 38.4,-375.14 37.92,-172.39 102.23,-345.76 191.35,-516.55l13.25 -25.33 -30.88 -44.2c-66.24,-94.82 -67.2,-203.4 -2.82,-322.58l82.83 43.72c-9.34,18.98 -12.51,37.07 -9.53,55.16 3.03,18.07 10.08,32.53 21.61,44.25 12.3,12.51 22.03,14.03 29.08,14.03 16.37,0 34.27,-8.01 53.19,-24l0.29 -0.28c103.27,-146.7 215.45,-267.01 333.37,-357.64 126.4,-93.34 245.3,-148 354.04,-163.03 18.03,-2.39 35.69,-3.58 52.91,-3.7l2.54 0c97.56,0 182.66,36.16 253.74,108.03 86.63,77.15 136.97,213.29 151.89,414.44 14.1,199.56 -2.48,413.35 -49.3,635.73 -37.66,175.26 -91.27,337.1 -159.59,482.61 29.23,-14.31 57.63,-32.4 84.98,-54.19 59.74,-43.15 103.68,-93.78 132.27,-151.73 27.5,-55.43 35.39,-111.15 24.19,-170.21 -0.08,0.2 -0.22,0.34 -0.41,0.34 -0.91,0 -3.31,-2.08 -8.5,-5.78l-2 3.48 -85.32 -37.07c11.4,-38.55 30.67,-64.87 57.26,-78.19 9.67,-4.89 23.09,-9.23 39.93,-9.23 11.69,0 25.08,2.1 40.08,7.74 56.84,19.22 90.62,50 98.63,91.06 20.74,89.09 7.54,178.11 -39.71,263.08 -38.83,78.55 -94.36,147.47 -164.07,202.77 -39.85,30.24 -84.14,57.59 -132.49,82.03 -45.8,18.65 -91.33,30.8 -137.95,37.07 -65.07,108.17 -151.84,217.3 -258.09,324.69 -111.69,112.97 -240.18,187.74 -381.8,222.3 -39.16,10.39 -77.93,15.7 -116.02,15.85l-1.82 0zm-204.47 -1579.15c-87.6,167.86 -149.83,335.63 -186.8,503.49 -32.18,167.77 -43.79,323.97 -34.61,468.43 13.89,139.91 48.51,258.68 103.83,356.65 46.15,79.25 106.11,137.47 179.81,174.76 45.8,19.06 93.13,28.56 141.97,28.56 34.95,0 70.59,-4.83 107.13,-14.53 133.74,-32.67 253.66,-102.58 359.69,-209.81 110.73,-111.86 198.34,-223.71 262.92,-335.63 50.78,-4.61 99.2,-16.35 145.28,-34.91 46.15,-23.32 87.66,-49.03 124.55,-76.95 64.58,-51.24 115.28,-114.22 152.17,-188.8 41.46,-74.57 53.07,-151.45 34.54,-230.75 -4.56,-23.26 -27.63,-41.9 -69.14,-55.93 -8.5,-3.21 -16.37,-4.81 -23.69,-4.81 -24.24,0 -41.79,17.93 -52.44,53.75 13,-22.84 25.9,-34.28 38.75,-34.28 5.6,0 11.12,2.16 16.66,6.36 23.07,13.97 36.88,27.92 41.52,41.9 13.8,69.94 4.62,137.53 -27.71,202.82 -32.25,65.22 -80.68,121.15 -145.28,167.78 -64.58,51.24 -133.74,83.92 -207.58,97.89 92.29,-167.78 161.51,-358.95 207.58,-573.37 46.16,-219.1 62.25,-426.48 48.43,-622.32 -13.81,-186.42 -59.96,-314.61 -138.36,-384.57 -62.1,-62.84 -135.74,-94.19 -220.79,-94.19 -15.95,0 -32.25,1.05 -49.03,3.28 -101.41,14.04 -212.14,65.28 -332.06,153.81 -115.24,88.6 -223.68,205.14 -325.09,349.66l-6.99 6.98c-27.63,23.34 -55.32,35 -83.03,35 -23.01,0 -43.8,-9.31 -62.23,-28.01 -18.38,-18.64 -29.98,-41.96 -34.62,-69.88 -4.56,-28.01 0,-55.94 13.89,-83.94 -55.4,102.58 -55.4,193.48 0,272.65 18.44,-18.56 36.89,-27.92 55.33,-27.92 50.78,0 76.06,25.63 76.06,76.95 0,51.24 -25.28,76.87 -76.06,76.87 -13.82,0 -25.35,-2.32 -34.6,-6.99zm1276.58 446.17l0.55 0.34 -0.55 -0.34zm-1241.98 -545.74c-5.19,0 -13.53,5.32 -22.3,14.19l-25.63 25.83 34.25 17.32c0.7,0.33 4.42,2.01 13.68,2.01 25.01,0 29.36,-4.47 29.36,-29.66 0,-25.22 -4.35,-29.69 -29.36,-29.69z" />
		<path fill="#3AC1D0" fill-rule="nonzero" d="M9035.09 6162.81c-16.92,0 -32.82,-1.88 -47.61,-5.58 -36.87,-9.36 -66.87,-39.66 -89.93,-90.9 -27.69,-69.97 -34.6,-160.87 -20.8,-272.66 13.88,-144.54 53.07,-310.08 117.65,-496.5 64.59,-191.17 143,-377.61 235.21,-559.41 -4.56,9.28 -6.91,25.63 -6.91,48.94 -13.89,83.92 -16.16,177.14 -6.97,279.7 9.32,102.58 30.05,198.1 62.3,286.69 36.97,88.54 87.59,163.18 152.19,223.7 69.14,60.61 156.81,90.99 262.92,90.99 -64.6,102.56 -147.62,200.39 -249.11,293.67 -96.85,93.14 -205.16,156.12 -325.08,188.79 -30.47,8.37 -58.37,12.57 -83.86,12.57zm129.04 -1175.79c-46.49,107.11 -88.49,215.96 -125.52,325.43 -63.07,182.31 -101.82,345.63 -115.3,485.75 -12.92,104.66 -6.91,188.52 17.69,250.53 15.9,35.33 35.64,57.04 57.88,62.7 10.99,2.79 23.09,4.12 36.21,4.12 21.2,0 45.17,-3.64 71.57,-10.91 111.83,-30.44 214.49,-90.13 305.17,-177.41 76.41,-70.24 142.38,-143.47 197.03,-218.6 -80.89,-12.93 -151.01,-45.11 -209.25,-96.07 -70.25,-65.93 -125.24,-146.7 -164.62,-241.11 -34.24,-94.05 -56.16,-194.51 -65.75,-300.72 -2.57,-28.55 -4.29,-56.48 -5.11,-83.71z" />
		<path fill="#3AC1D0" fill-rule="nonzero" d="M9678.42 5613.8c-82.4,0 -151.35,-23.94 -206.69,-71.92 -64.58,-55.99 -113,-125.88 -145.27,-209.79 -32.25,-83.86 -53.05,-174.79 -62.23,-272.74 -4.64,-97.81 -2.35,-186.36 6.89,-265.66 9.26,-93.22 29.98,-179.45 62.25,-258.7 32.25,-79.25 69.22,-151.51 110.66,-216.72 83.04,-125.88 177.6,-207.5 283.63,-244.79 23.15,-9.28 57.77,-13.97 103.84,-13.97 27.63,4.69 50.7,23.33 69.15,55.93 23.14,28.01 39.24,60.6 48.42,97.89 9.26,37.29 16.18,74.58 20.72,111.92 9.26,37.29 13.88,67.51 13.88,90.85 18.45,195.84 2.29,403.22 -48.48,622.31 -50.64,214.41 -122.13,405.6 -214.42,573.38 -14.51,1.32 -28.61,2.01 -42.35,2.01zm148.58 -1507.01c-46.68,0.34 -70.32,5.92 -81.99,10.61 -97.67,34.42 -185.2,110.52 -262.08,227.05 -39.37,62.01 -75.31,132.39 -106.32,208.57 -30.39,74.69 -50.21,157.23 -58.98,245.42l-0.08 0.77c-8.83,76.3 -11.12,163.03 -6.64,257.99 8.64,90.76 28.53,178.24 59.14,257.85 29.29,76.1 73.7,140.4 132.15,190.95 46.98,40.77 104.37,60.6 176.29,60.6 4.49,0 9.05,-0.14 13.61,-0.28 83.99,-157.94 150.45,-339.11 197.64,-538.87 49.31,-212.74 65.26,-417.05 47.39,-606.82 -0.22,-23.89 -4.37,-50.63 -12.65,-83.92 -5.39,-40.85 -11.95,-76.59 -20.72,-111.86 -7.6,-30.66 -20.31,-56.49 -38.97,-79.11l-4.76 -6.85c-13.82,-24.56 -26.39,-30.36 -33.03,-32.1z" />
		<path fill="#3AC1D0" fill-rule="nonzero" d="M10731.66 6267.96l-2.58 0c-54.07,-0.33 -106.74,-11.02 -157.4,-32.12 -84.82,-42.73 -151.83,-107.67 -202.33,-194.51 -58.73,-103.77 -95.6,-230.06 -110.05,-375.85 -1.9,-29.61 -2.96,-59.65 -3.17,-90.19l0 -24.21c0.84,-116.57 13.72,-239.58 38.4,-367.87 37.87,-172.31 102.17,-345.68 191.29,-516.47l13.33 -25.33 -30.88 -44.2c-66.24,-94.82 -67.22,-203.4 -2.84,-322.58l82.83 43.72c-9.4,19.06 -12.51,37.07 -9.53,55.02 2.97,18.29 10.02,32.67 21.56,44.33 12.29,12.57 22.03,14.09 29.15,14.09 16.37,0 34.19,-8.01 53.11,-24l0.27 -0.28c103.43,-146.84 215.54,-267.07 333.46,-357.64 126.41,-93.34 245.23,-148 354.03,-163.03 17.97,-2.39 35.7,-3.58 52.93,-3.7l2.54 0c97.54,0 182.58,36.16 253.72,108.03 86.57,77.15 136.99,213.29 151.91,414.44 14.02,199.28 -2.56,413.13 -49.32,635.65 -37.72,175.34 -91.33,337.18 -159.65,482.75 29.23,-14.37 57.69,-32.46 85.04,-54.25 59.69,-43.15 103.63,-93.78 132.35,-151.79 26.89,-54.38 34.96,-109.05 24.68,-166.86l-9.54 -8.67 -1.94 3.35 -85.37 -37c11.45,-38.55 30.74,-64.87 57.25,-78.19 9.75,-4.83 23.23,-9.23 40.01,-9.23 11.75,0 25.06,2.1 39.98,7.74 56.79,19.22 90.51,49.94 98.65,90.93 6.19,26.46 9.31,52.92 9.54,79.18l0 1.25 0 2.38c-0.22,61.29 -16.64,121.83 -49.25,180.4 -38.75,78.49 -94.3,147.41 -164.07,202.77 -39.71,30.16 -84.01,57.53 -132.43,82.03 -45.86,18.65 -91.39,30.8 -137.95,37.07 -65.21,108.23 -151.89,217.36 -258.07,324.69 -111.77,112.97 -240.26,187.74 -381.8,222.3 -39.24,10.39 -77.93,15.7 -116.04,15.85l-1.82 0zm-204.47 -1579.15c-87.66,167.86 -149.89,335.63 -186.78,503.49 -32.33,167.77 -43.87,323.97 -34.62,468.43 13.82,139.91 48.42,258.68 103.84,356.65 46.07,79.25 106.03,137.47 179.81,174.76 45.73,19.06 93.04,28.56 141.89,28.56 34.95,0 70.65,-4.83 107.21,-14.53 133.66,-32.67 253.58,-102.58 359.69,-209.81 110.66,-111.86 198.26,-223.71 262.84,-335.63 50.78,-4.61 99.2,-16.35 145.34,-34.91 46.07,-23.32 87.6,-49.03 124.5,-76.95 64.58,-51.24 115.27,-114.22 152.16,-188.8 41.52,-74.57 53.07,-151.45 34.62,-230.75 -4.64,-23.26 -27.63,-41.9 -69.16,-55.93 -8.55,-3.21 -16.43,-4.81 -23.69,-4.81 -24.3,0 -41.79,17.93 -52.42,53.75 12.9,-22.84 25.83,-34.28 38.75,-34.28 5.52,0 11.04,2.16 16.57,6.36 23.08,13.97 36.89,27.92 41.53,41.9 13.8,69.94 4.62,137.53 -27.63,202.82 -32.33,65.22 -80.75,121.15 -145.28,167.78 -64.59,51.24 -133.82,83.92 -207.58,97.89 92.21,-167.78 161.43,-358.95 207.58,-573.37 46.08,-219.1 62.23,-426.48 48.43,-622.32 -13.88,-186.42 -59.98,-314.61 -138.38,-384.57 -62.17,-62.84 -135.8,-94.19 -220.84,-94.19 -15.88,0 -32.25,1.05 -48.98,3.28 -101.47,14.04 -212.14,65.28 -332.06,153.81 -115.29,88.6 -223.68,205.14 -325.15,349.66l-6.91 6.98c-27.63,23.34 -55.34,35 -83.03,35 -23.08,0 -43.88,-9.31 -62.25,-28.01 -18.44,-18.64 -29.98,-41.96 -34.6,-69.88 -4.64,-28.01 0,-55.94 13.81,-83.94 -55.34,102.58 -55.34,193.48 0,272.65 18.44,-18.56 36.89,-27.92 55.39,-27.92 50.72,0 76.06,25.63 76.06,76.95 0,51.24 -25.34,76.87 -76.06,76.87 -13.88,0 -25.41,-2.32 -34.6,-6.99zm1276.58 446.09l0.57 0.36 -0.57 -0.36zm-1241.98 -545.66c-5.24,0 -13.53,5.24 -22.24,14.11l-25.61 25.91 34.25 17.32c0.62,0.33 4.36,2.01 13.6,2.01 24.95,0 29.38,-4.47 29.38,-29.66 0,-25.22 -4.43,-29.69 -29.38,-29.69z" />
		<path fill="#3AC1D0" fill-rule="nonzero" d="M10740.79 6162.81c-16.92,0 -32.82,-1.88 -47.53,-5.58 -36.97,-9.36 -66.94,-39.66 -90.01,-90.9 -27.63,-69.97 -34.54,-160.87 -20.72,-272.66 13.81,-144.54 52.99,-310.08 117.65,-496.5 64.5,-191.17 142.92,-377.61 235.21,-559.41 -4.64,9.28 -6.99,25.63 -6.99,48.94 -13.81,83.92 -16.16,177.14 -6.89,279.7 9.24,102.58 29.98,198.1 62.3,286.69 36.82,88.54 87.59,163.18 152.17,223.7 69.16,60.61 156.75,90.99 262.92,90.99 -64.66,102.56 -147.68,200.39 -249.09,293.67 -96.85,93.14 -205.24,156.12 -325.15,188.79 -30.47,8.37 -58.38,12.57 -83.87,12.57zm129.04 -1175.85c-46.49,107.09 -88.43,215.94 -125.38,325.49 -63.21,182.17 -101.96,345.55 -115.37,485.75 -12.91,104.6 -6.9,188.44 17.62,250.59 15.88,35.27 35.64,56.98 57.88,62.64 11.07,2.79 23.15,4.12 36.27,4.12 21.2,0 45.11,-3.64 71.57,-10.91 111.85,-30.44 214.49,-90.13 305.12,-177.41 76.48,-70.24 142.31,-143.47 197.03,-218.6 -80.84,-12.93 -151.02,-45.11 -209.19,-96.07 -70.38,-65.93 -125.36,-146.78 -164.68,-241.17 -34.33,-93.91 -56.16,-194.45 -65.7,-300.71 -2.55,-28.5 -4.27,-56.43 -5.17,-83.72z" />
		<path fill="#3AC1D0" fill-rule="nonzero" d="M11384.2 5613.8c-82.5,0 -151.37,-23.94 -206.76,-71.92 -64.6,-55.99 -112.95,-125.88 -145.28,-209.79 -32.25,-83.86 -52.99,-174.79 -62.23,-272.74 -4.64,-97.81 -2.35,-186.36 6.97,-265.66 9.19,-93.22 29.9,-179.45 62.17,-258.7 32.33,-79.25 69.22,-151.51 110.74,-216.72 83.02,-125.88 177.52,-207.5 283.63,-244.79 23.01,-9.28 57.61,-13.97 103.77,-13.97 27.68,4.69 50.69,23.33 69.2,55.93 23.01,28.01 39.18,60.6 48.42,97.89 9.21,37.29 16.1,74.58 20.74,111.92 9.24,37.29 13.8,67.51 13.8,90.85 18.45,195.84 2.35,403.22 -48.42,622.31 -50.7,214.41 -122.19,405.6 -214.42,573.38 -14.51,1.32 -28.59,2.01 -42.33,2.01zm148.5 -1507.01c-46.68,0.34 -70.31,5.92 -81.93,10.61 -97.67,34.42 -185.2,110.52 -262.07,227.05 -39.38,61.93 -75.3,132.31 -106.39,208.57 -30.39,74.63 -50.21,157.17 -58.92,245.42l-0.08 0.83c-8.91,76.18 -11.18,162.89 -6.7,257.93 8.64,90.9 28.61,178.38 59.22,257.85 29.27,76.17 73.7,140.48 132.07,190.95 46.84,40.63 104.51,60.6 175.67,60.6 4.7,0 9.46,-0.06 14.29,-0.28 83.93,-157.94 150.39,-339.11 197.64,-538.87 49.33,-212.74 65.29,-417.05 47.39,-606.82 -0.2,-23.81 -4.43,-50.49 -12.63,-83.92 -5.47,-40.93 -12.1,-76.67 -20.8,-111.94 -7.54,-30.58 -20.3,-56.46 -38.97,-79.03l-4.62 -6.77c-13.96,-24.64 -26.53,-30.44 -33.17,-32.18z" />
		<path fill="#3AC1D0" fill-rule="nonzero" d="M4467.92 6277.8c-52.36,0 -93.87,-18.84 -123.79,-39.8 -82.69,-55.64 -122.19,-154.16 -116.94,-292.33 -0.08,-123.16 19.19,-254.58 57.06,-388.77 32.33,-135.31 75.02,-267.13 126.48,-390.02 51.87,-123.93 90.97,-209.95 119.64,-262.95l61.48 -124.35c18.31,-41.88 40.26,-83.78 64.39,-122.81l13.74 -22.13 -26.12 -37.43c-66.24,-94.82 -67.2,-203.32 -2.9,-322.58l84.01 41.26c-10.16,24.03 -13.75,45.74 -10.63,64.52 2.95,18.15 10,32.68 21.54,44.28 9.61,9.76 20.79,14.09 36.12,14.09 15.55,-2.71 36.35,-14.39 56.87,-35.11 6.97,-7.07 10.36,-12.43 12,-15.71 6.78,-13.76 16.72,-27.3 29.43,-40.16 156.95,-205.82 314.25,-347.07 463.54,-415.22 63.26,-33.72 123.36,-50.82 178.97,-50.82l1.37 0c28.94,0.16 56.59,4.89 82.91,14.37 93.46,20.66 160.61,77.64 194.05,167.77 28.73,77.37 43.73,156.06 44.47,233.92 12.57,46.14 23.09,80 31.31,100.74 4.68,12.02 8.7,19.91 11.67,24.94l14.08 1.33c24.18,0 51.4,7.32 82.83,22.4 14.65,3.21 27.22,11.46 35.5,23.81 19.29,28.76 5.68,63.2 1.18,74.5 -20.45,37.07 -50.15,97.2 -91.12,184.46 -36.12,86.86 -80.04,189.7 -130.9,306.51 -50.91,112.36 -103.9,231.11 -159.16,356.79 -54.57,124.02 -103.19,240.97 -144.51,347.65 -36.05,104.93 -66.05,198.29 -88.56,275.72 -9.87,39.8 -12.14,64.02 -12.09,78.14l1.67 -0.84c24.24,-12.23 49.19,-29.05 74.06,-49.99 35.42,-25.77 65.81,-46.99 93.87,-65.91 26.51,-22.7 32.88,-31.56 33.56,-32.53l4.7 -9.58 7.4 -4.81c39.3,-30.94 88.63,-78.56 146.65,-141.67 56.57,-66.05 108.46,-138.94 153.09,-215.62 48.56,-75.96 81.36,-150.95 98.57,-224.61 20.23,-69.95 16.92,-126.93 -9.54,-176.51 -17.13,-34.55 -41.65,-53.2 -77.91,-59.83 -3.66,-0.77 -6.29,-0.91 -8.03,-0.91 -0.88,0 -1.59,0 -2.06,0.06 -0.43,0.08 -0.62,0.16 -0.7,0.16 -1.78,1.52 -8.22,12.76 -10.28,41.46l-90.98 11.6c-17.84,-54.11 -2.29,-91.4 13.89,-113.25 24.38,-30.79 51.79,-52.09 82.34,-64.46 17.13,-5.78 34.11,-8.65 50.97,-8.65 24.04,0 47.6,5.86 70.26,17.24 39.37,16.98 74.88,52.17 102.99,103.27 26.32,49.92 39.58,103.75 39.85,161.09l0 3.34c-0.13,34.84 -5.11,70.94 -14.84,108.23 -18.99,86.92 -55.89,176.44 -109.07,264.42 -52.09,86.07 -112.18,166.31 -178.64,238.29 -59.96,69.96 -114.89,127.83 -162,170.7 -51.32,47.21 -106.03,92.87 -162.33,135.54 -58.37,42.87 -127.04,67.01 -204.82,72.26 -10.57,1.27 -20.93,1.88 -30.94,1.88 -81.52,0 -143.96,-40.77 -180.58,-119.94 -19.68,-34.58 -33.37,-78.42 -38.61,-126.67 -4.84,-48.17 -7.25,-96.84 -7.25,-145.01l7.93 -82.53c-6.77,8.86 -13.8,18.09 -21.13,27.64 -60.09,84.08 -131.53,168.35 -211.38,249.12 -77.03,77.87 -160.27,139.66 -247.37,183.63 -48.51,25.99 -91.76,36.06 -129.47,36.38l-1.79 0zm227.97 -1595.98c-23.09,37.29 -43.8,76.96 -62.31,118.91 -18.44,37.21 -39.18,79.25 -62.25,125.82 -27.7,51.26 -66.87,137.55 -117.64,258.7 -50.7,121.27 -92.15,249.4 -124.48,384.58 -36.89,130.56 -55.34,256.44 -55.34,377.64 -4.62,121.15 27.65,205.07 96.85,251.64 29.98,21.02 62.25,31.49 96.85,31.49 34.54,0 71.51,-10.47 110.68,-31.49 83.02,-41.88 161.42,-100.19 235.21,-174.76 78.4,-79.25 147.54,-160.79 207.5,-244.71 64.6,-83.94 108.46,-144.54 131.47,-181.83 -9.18,37.29 -16.09,79.25 -20.73,125.9 -4.63,46.63 -9.19,93.2 -13.89,139.85 0,46.57 2.29,93.22 6.99,139.79 4.62,41.96 16.1,79.3 34.53,111.92 28.53,61.65 74.95,92.51 139.26,92.51 8.63,0 17.56,-0.56 26.81,-1.61 69.16,-4.69 129.12,-25.69 179.89,-62.97 55.32,-41.9 108.38,-86.24 159.08,-132.81 46.15,-41.96 99.12,-97.97 159.1,-167.85 64.58,-69.89 122.27,-146.84 172.96,-230.75 50.7,-83.86 85.32,-167.78 103.77,-251.72 23.06,-88.61 16.15,-167.77 -20.74,-237.74 -23.07,-41.96 -50.7,-69.96 -83.03,-83.92 -16.58,-8.39 -33.23,-12.56 -49.79,-12.56 -11.07,0 -22.19,1.88 -33.23,5.58 -23.01,9.36 -43.81,25.69 -62.25,48.94 -13.81,18.65 -16.16,41.96 -6.91,69.89 4.01,-57.12 23.91,-85.6 59.76,-85.6 5.11,0 10.57,0.55 16.29,1.74 50.72,9.3 87.67,37.29 110.67,83.86 32.33,60.68 36.96,130.57 13.89,209.81 -18.51,79.25 -53.05,158.5 -103.76,237.74 -46.14,79.25 -99.13,153.82 -159.16,223.79 -59.96,65.21 -110.66,114.16 -152.17,146.83 -4.64,9.29 -20.74,25.62 -48.42,48.95 -27.63,18.64 -57.61,39.58 -89.94,62.9 -27.71,23.31 -55.34,41.96 -82.97,55.93 -16.66,8.37 -29.92,12.63 -39.87,12.63 -6.64,0 -11.8,-1.88 -15.54,-5.64 -18.45,-18.65 -18.45,-65.22 0,-139.85 23.08,-79.19 53.06,-172.47 89.95,-279.64 41.52,-107.25 89.94,-223.79 145.26,-349.61 55.41,-125.87 108.46,-244.78 159.1,-356.64 50.77,-116.54 94.63,-219.1 131.45,-307.71 41.51,-88.53 71.51,-149.13 90.01,-181.73 9.19,-23.33 6.92,-34.99 -6.97,-34.99 -27.63,-13.95 -50.71,-20.94 -69.22,-20.94 -13.82,0 -27.63,-2.37 -41.45,-7.05 -9.19,-9.3 -18.51,-25.63 -27.69,-48.94 -9.2,-23.34 -20.74,-60.54 -34.54,-111.86 0,-74.58 -13.88,-149.14 -41.59,-223.77 -27.63,-74.58 -82.97,-121.23 -165.99,-139.87 -21.49,-7.74 -44.3,-11.58 -68.4,-11.58 -48.15,0 -101.47,15.5 -159.92,46.57 -142.93,65.28 -292.83,200.45 -449.63,405.6 -9.27,9.28 -16.16,18.64 -20.8,27.92 -4.56,9.29 -11.53,18.65 -20.72,27.99 -27.71,27.94 -57.61,44.27 -89.93,48.94 -27.71,0 -50.72,-9.28 -69.17,-27.98 -18.44,-18.65 -29.98,-41.96 -34.6,-69.91 -4.62,-27.98 0,-58.28 13.83,-90.9 -55.34,102.58 -55.34,193.48 0,272.65 13.88,-18.56 32.33,-27.92 55.32,-27.92 50.77,0 76.13,25.63 76.13,76.95 0,51.24 -25.36,76.87 -76.13,76.87 -9.19,0 -22.99,-4.67 -41.44,-13.98zm41.51 -92.58c-8.44,0 -12.92,2.31 -18.03,9.08l-23.01 31 20.38 10.27c13.69,6.91 20.12,8.59 21.84,9 23.89,-0.13 28.12,-4.88 28.12,-29.66 0,-25.22 -4.37,-29.69 -29.3,-29.69z" />
		<path fill="#3AC1D0" fill-rule="nonzero" d="M4628.39 6055.84c-17.27,0 -29.43,-8.16 -36.34,-24.51 -13.8,-32.59 -13.8,-81.54 0,-146.83 13.88,-69.89 36.89,-149.21 69.22,-237.74 32.27,-93.2 64.52,-181.81 96.85,-265.67 36.89,-83.92 69.14,-156.2 96.85,-216.8 32.27,-60.6 50.7,-95.57 55.34,-104.94 124.54,-256.3 237.48,-459.15 338.97,-608.28 106.1,-149.13 195.97,-251.71 269.82,-307.62 46.07,-34.58 84.63,-51.82 115.57,-51.82 52.57,0 83.24,49.86 91.95,149.71 -133.74,237.74 -244.42,459.13 -332.06,664.27 -87.61,200.39 -154.48,382.2 -200.61,545.37 -207.53,312.31 -373.58,505.8 -498.06,580.35 -27.71,16.35 -50.17,24.51 -67.5,24.51zm1006.28 -1916.95c-16.51,0 -45.73,11.05 -87.73,42.54 -69.44,52.56 -156.89,152.69 -259.67,297.29 -99.12,145.65 -212.01,348.42 -335.04,601.52l-0.14 0.33c-4.62,9.44 -23.28,44.83 -55.94,106.15 -26.32,57.81 -58.51,129.93 -95.34,213.57 -31.02,80.85 -63.41,169.67 -95.4,262.1 -31.57,86.59 -54.22,164.3 -67.48,231.39 -13.88,65.35 -9.67,98.52 -4.64,114.16 6.28,-1.33 18.58,-5.31 39.04,-17.38 116.89,-70.02 278.04,-258.34 478.71,-559.75 46.49,-162.75 113.99,-345.82 200.75,-544.26 86.28,-201.8 196.25,-422.36 326.82,-655.41 -6.84,-58.03 -21.84,-84.76 -34.19,-90.42l-9.75 -1.83z" />
		<path fill="#31353A" fill-rule="nonzero" d="M10680.28 4745.3c-86.63,170.7 -160.27,345.76 -220.92,525.19 -60.58,175.04 -97.39,330.39 -110.4,466.06 -12.98,105.08 -6.48,190.4 19.49,256.03 21.69,48.17 49.81,76.6 84.41,85.32 34.68,8.81 75.78,6.63 123.44,-6.55 112.62,-30.6 214.36,-89.73 305.26,-177.21 95.26,-87.56 173.2,-179.44 233.84,-275.72 -99.61,0 -181.89,-28.43 -246.82,-85.33 -60.65,-56.9 -108.25,-126.94 -142.93,-210.09 -30.25,-83.16 -49.73,-172.88 -58.43,-269.17 -8.63,-96.26 -6.5,-183.76 6.48,-262.52 0,-21.93 2.22,-37.21 6.58,-46.01zm38.89 52.51c-8.63,74.43 -10.79,157.58 -6.5,249.47 8.71,91.88 28.18,177.28 58.51,256.03 30.25,78.75 75.78,144.46 136.36,196.97 60.65,52.51 138.58,74.36 233.83,65.63 86.57,-157.53 153.71,-336.96 201.29,-538.32 47.69,-205.7 62.8,-400.43 45.53,-584.28 0,-21.85 -4.35,-50.27 -13.06,-85.32 -4.27,-34.97 -10.77,-70.02 -19.46,-105 -8.64,-35.05 -23.78,-65.63 -45.47,-91.95 -17.27,-30.6 -38.95,-48.11 -64.93,-52.45 -43.32,0 -75.78,4.34 -97.4,13.07 -99.61,35.05 -188.38,111.64 -266.31,229.78 -38.95,61.29 -73.63,129.1 -103.88,203.52 -30.33,74.36 -49.81,155.37 -58.51,242.85zm-389.69 -91.9c47.6,0 71.51,-24.09 71.51,-72.18 0,-48.11 -23.91,-72.2 -71.51,-72.2 -17.25,0 -34.6,8.73 -51.93,26.24 -51.95,-74.41 -51.95,-159.74 0,-256.02 -13,26.24 -17.35,52.5 -13,78.83 4.36,26.18 15.13,48.11 32.46,65.55 17.35,17.53 36.84,26.32 58.45,26.32 25.97,0 52.01,-10.94 78,-32.81l6.48 -6.63c95.2,-135.6 196.95,-245.07 305.2,-328.23 112.59,-83.09 216.57,-131.26 311.83,-144.38 99.53,-13.13 183.95,15.28 253.23,85.32 73.64,65.63 116.96,186 129.88,361.04 12.98,183.83 -2.15,378.56 -45.39,584.26 -43.39,201.3 -108.24,380.73 -194.87,538.32 69.22,-13.13 134.21,-43.76 194.87,-91.88 60.59,-43.78 106.04,-96.28 136.37,-157.58 30.31,-61.24 38.95,-124.71 25.96,-190.42 -4.34,-13.04 -17.33,-26.24 -38.96,-39.36 -17.33,-13.13 -34.6,-4.34 -51.93,26.32 12.98,-43.78 36.81,-59.14 71.41,-46.02 38.97,13.13 60.58,30.66 64.93,52.57 17.35,74.36 6.5,146.56 -32.46,216.6 -34.68,70.03 -82.27,129.09 -142.85,177.28 -34.68,26.24 -73.65,50.27 -116.96,72.18 -43.32,17.46 -88.69,28.42 -136.35,32.81 -60.66,105.02 -142.86,210.1 -246.82,315.11 -99.61,100.68 -212.15,166.31 -337.74,196.97 -82.26,21.85 -160.18,17.46 -233.83,-13.2 -69.27,-34.97 -125.51,-89.64 -168.83,-164.08 -51.95,-91.89 -84.47,-203.52 -97.47,-334.8 -8.64,-135.65 2.21,-282.27 32.46,-439.79 34.68,-157.58 93.13,-315.19 175.39,-472.69 8.64,4.39 19.49,6.55 32.47,6.55zm-1250.67 39.39c-86.55,170.7 -160.19,345.76 -220.78,525.19 -60.64,175.04 -97.46,330.39 -110.46,466.06 -12.98,105.08 -6.48,190.4 19.56,256.03 21.62,48.17 49.74,76.6 84.42,85.32 34.6,8.81 75.7,6.63 123.36,-6.55 112.62,-30.6 214.28,-89.73 305.28,-177.21 95.24,-87.56 173.18,-179.44 233.82,-275.72 -99.61,0 -181.89,-28.43 -246.82,-85.33 -60.65,-56.9 -108.25,-126.94 -142.85,-210.09 -30.33,-83.16 -49.82,-172.88 -58.51,-269.17 -8.64,-96.26 -6.42,-183.76 6.48,-262.52 0,-21.93 2.21,-37.21 6.5,-46.01zm39.03 52.51c-8.7,74.43 -10.85,157.58 -6.56,249.47 8.71,91.88 28.18,177.28 58.51,256.03 30.25,78.75 75.78,144.46 136.36,196.97 60.59,52.51 138.58,74.36 233.84,65.63 86.55,-157.53 153.7,-336.96 201.36,-538.32 47.6,-205.7 62.72,-400.43 45.45,-584.28 0,-21.85 -4.35,-50.27 -12.98,-85.32 -4.35,-34.97 -10.85,-70.02 -19.49,-105 -8.69,-35.05 -23.83,-65.63 -45.52,-91.95 -17.27,-30.6 -38.89,-48.11 -64.94,-52.45 -43.31,0 -75.78,4.34 -97.39,13.07 -99.62,35.05 -188.38,111.64 -266.29,229.78 -38.97,61.29 -73.65,129.1 -103.9,203.52 -30.33,74.36 -49.82,155.37 -58.45,242.85zm-389.73 -91.9c47.66,0 71.49,-24.09 71.49,-72.18 0,-48.11 -23.83,-72.2 -71.49,-72.2 -17.27,0 -34.62,8.73 -51.95,26.24 -51.95,-74.41 -51.95,-159.74 0,-256.02 -13,26.24 -17.35,52.5 -13,78.83 4.36,26.18 15.21,48.11 32.46,65.55 17.35,17.53 36.83,26.32 58.45,26.32 26.05,0 52.01,-10.94 77.92,-32.81l6.5 -6.63c95.32,-135.6 197.09,-245.07 305.33,-328.23 112.52,-83.09 216.42,-131.26 311.68,-144.38 99.61,-13.13 184.03,15.28 253.31,85.32 73.64,65.63 116.96,186 129.94,361.04 12.98,183.83 -2.14,378.56 -45.45,584.26 -43.31,201.3 -108.25,380.73 -194.87,538.32 69.27,-13.13 134.21,-43.76 194.87,-91.88 60.59,-43.78 106.03,-96.28 136.37,-157.58 30.31,-61.24 38.94,-124.71 25.96,-190.42 -4.29,-13.04 -17.27,-26.24 -38.97,-39.36 -17.33,-13.13 -34.6,-4.34 -51.93,26.32 12.99,-43.78 36.74,-59.14 71.42,-46.02 38.96,13.13 60.58,30.66 64.93,52.57 17.35,74.36 6.5,146.56 -32.47,216.6 -34.6,70.03 -82.26,129.09 -142.84,177.28 -34.68,26.24 -73.65,50.27 -116.96,72.18 -43.24,17.46 -88.77,28.42 -136.35,32.81 -60.58,105.02 -142.87,210.1 -246.82,315.11 -99.56,100.68 -212.15,166.31 -337.73,196.97 -82.28,21.85 -160.19,17.46 -233.84,-13.2 -69.22,-34.97 -125.51,-89.64 -168.83,-164.08 -51.95,-91.89 -84.41,-203.52 -97.48,-334.8 -8.63,-135.65 2.22,-282.27 32.55,-439.79 34.6,-157.58 93.05,-315.19 175.31,-472.69 8.72,4.39 19.49,6.55 32.49,6.55zm-1105.83 -1122.51c-47.66,8.72 -97.4,17.45 -149.42,26.26 -47.59,4.31 -95.19,8.73 -142.85,13.12 -73.57,161.92 -145.06,319.44 -214.36,472.63 -69.28,148.78 -132,284.45 -188.31,407.04 -8.64,21.87 -19.47,43.72 -32.47,65.65 -8.69,21.85 -17.33,43.76 -26.04,65.63 125.65,-166.31 251.17,-337.04 376.76,-512.07 129.87,-175.04 255.46,-354.5 376.69,-538.26zm1227.53 -262.6c-56.3,13.14 -114.73,26.26 -175.4,39.38 -60.56,13.13 -121.22,26.25 -181.87,39.39 -99.55,196.97 -192.66,391.7 -279.29,584.26 -86.55,192.57 -164.48,365.45 -233.76,518.62 -8.64,21.87 -19.49,43.72 -32.47,65.65 -8.71,21.85 -17.35,43.76 -25.96,65.63 151.54,-210.09 307.39,-424.52 467.58,-643.33 160.2,-218.82 313.97,-442.06 461.17,-669.6zm-214.34 -210.01c73.62,-21.93 145.06,-41.63 214.34,-59.14 69.22,-21.85 138.57,-41.55 207.87,-59.08 17.27,-30.64 51.87,-89.72 103.88,-177.28 51.95,-91.87 101.77,-185.92 149.35,-282.21 47.68,-100.68 80.15,-192.63 97.48,-275.72 21.62,-83.16 8.63,-135.73 -39.03,-157.58 -30.25,-13.14 -64.93,-4.34 -103.9,26.24 -38.97,30.66 -77.91,67.87 -116.88,111.65 -34.68,43.7 -67.14,89.71 -97.4,137.83 -26.04,43.78 -45.52,74.42 -58.51,91.87 -56.29,91.9 -114.74,192.58 -175.33,301.99 -60.64,109.41 -121.23,223.21 -181.87,341.43zm-1214.56 321.59c60.66,-13.12 119.09,-24.02 175.39,-32.81 60.58,-13.14 121.25,-28.42 181.83,-45.96 43.3,-65.63 84.4,-131.26 123.44,-196.95 43.24,-65.65 84.42,-131.28 123.37,-196.91 13,-21.92 43.31,-74.41 90.91,-157.58 52.01,-87.48 99.61,-179.43 142.93,-275.66 47.58,-96.27 80.13,-186.06 97.4,-269.15 21.61,-83.16 8.69,-135.73 -38.97,-157.58 -30.31,-13.14 -64.93,-4.34 -103.96,26.24 -38.89,30.66 -77.91,67.87 -116.88,111.65 -34.6,43.7 -67.07,89.71 -97.4,137.83 -25.98,43.78 -45.45,74.42 -58.45,91.87 -82.26,131.34 -168.89,280.14 -259.81,446.45 -86.6,166.25 -173.17,339.11 -259.8,518.56zm870.33 -216.66c69.28,-113.74 136.43,-223.15 201.3,-328.17 69.28,-105.07 132.08,-199.12 188.38,-282.27 56.29,-83.16 106.11,-153.19 149.34,-210.09 43.4,-56.92 78,-98.46 103.96,-124.71 21.7,-21.93 51.95,-50.35 90.92,-85.38 43.31,-34.99 88.76,-65.65 136.42,-91.89 47.61,-26.25 95.27,-41.55 142.87,-45.94 47.66,-8.73 88.76,2.24 123.44,32.82 38.89,39.36 47.6,102.83 25.91,190.39 -17.27,83.17 -47.61,172.88 -90.92,269.09 -43.24,91.96 -88.76,179.44 -136.37,262.6 -47.66,83.17 -82.26,142.23 -103.87,177.28 324.66,-74.44 595.31,-107.25 811.8,-98.53 220.84,4.42 400.52,32.9 539.1,85.41 186.16,70.02 320.39,161.91 402.66,275.72 82.28,109.41 125.59,216.58 129.94,321.65 8.63,105.02 -15.2,196.91 -71.49,275.66 -56.3,74.44 -129.95,111.65 -220.84,111.65 60.64,-8.79 116.94,-39.39 168.89,-91.87 51.95,-52.51 77.91,-113.83 77.91,-183.85 4.37,-74.44 -25.96,-150.95 -90.9,-229.78 -65.01,-78.76 -181.89,-144.39 -350.72,-196.89 -147.21,-48.2 -348.57,-70.05 -604.03,-65.71 -255.44,0 -586.68,41.62 -993.7,124.77 -168.89,262.59 -346.44,518.62 -532.6,768.04 -181.81,249.46 -363.7,496.77 -545.58,741.78 -95.2,236.33 -164.56,437.64 -207.79,603.95 -38.97,161.99 -58.44,293.25 -58.44,393.93 4.27,105.02 28.1,170.65 71.42,196.89 47.66,21.93 112.53,2.16 194.81,-59.06 56.36,-39.38 112.6,-87.5 168.89,-144.4 60.65,-56.9 114.75,-115.96 162.41,-177.27 51.95,-65.63 95.27,-131.26 129.87,-196.97 34.68,-69.97 54.16,-137.83 58.45,-203.46 4.34,-48.18 -4.29,-85.32 -25.99,-111.65 -17.33,-26.24 -38.96,-41.54 -64.93,-45.93 -25.96,-4.34 -49.79,0 -71.43,13.2 -21.68,8.72 -32.47,26.24 -32.47,52.43 -12.98,-34.98 -6.48,-61.24 19.49,-78.76 25.9,-21.85 56.29,-30.57 90.91,-26.26 34.6,4.41 64.93,21.87 90.9,52.59 30.33,30.58 43.31,80.93 38.97,150.95 -4.29,61.24 -23.83,129.1 -58.45,203.46 -34.6,70.02 -77.92,140.07 -129.87,210.09 -51.95,65.63 -110.46,129.1 -175.39,190.4 -60.58,61.23 -116.88,111.58 -168.83,150.95 -73.63,52.51 -147.2,96.29 -220.84,131.34 -69.28,34.97 -134.23,50.27 -194.8,45.94 -60.66,-4.4 -110.46,-32.88 -149.42,-85.33 -38.97,-52.56 -60.65,-137.89 -64.94,-256.02 -4.34,-91.96 6.51,-207.94 32.47,-347.93 -56.3,100.63 -127.73,196.89 -214.36,288.87 -86.63,91.87 -166.68,166.23 -240.24,223.13 -73.65,52.51 -147.3,96.29 -220.86,131.34 -69.28,34.97 -134.21,50.27 -194.88,45.94 -60.64,-4.4 -110.38,-32.88 -149.4,-85.33 -38.89,-52.56 -60.59,-137.89 -64.88,-256.02 -8.69,-122.54 8.64,-275.72 51.89,-459.57 43.38,-188.16 114.81,-404.82 214.42,-649.89l25.91 0c47.66,0 71.49,-24.08 71.49,-72.2 0,-48.17 -23.83,-72.2 -71.49,-72.2 -30.26,0 -51.95,15.3 -64.94,45.94 -34.62,-30.64 -58.45,-72.18 -71.43,-124.77 -8.71,-52.51 4.35,-109.33 38.97,-170.64 -13,30.65 -17.27,61.31 -13,91.89 8.71,30.66 23.85,52.57 45.46,65.71 21.62,13.04 45.53,17.45 71.42,13.04 30.33,-8.73 60.66,-32.81 90.99,-72.18 51.93,-113.74 112.52,-236.28 181.82,-367.61 69.28,-131.26 140.77,-264.76 214.34,-400.43 -233.83,8.72 -437.34,4.39 -610.52,-13.13 -173.17,-21.92 -316.1,-56.9 -428.63,-105.07 -181.9,-69.96 -303.12,-150.97 -363.71,-242.85 -60.64,-91.89 -82.26,-175.04 -64.99,-249.47 12.98,-78.75 54.14,-140.07 123.44,-183.83 64.93,-43.72 136.37,-52.45 214.34,-26.18 -77.97,-17.54 -147.27,-6.58 -207.86,32.81 -60.64,39.37 -93.11,91.87 -97.45,157.5 -8.64,65.63 19.54,135.68 84.41,210.09 60.64,74.36 175.39,140.01 344.28,196.91 121.23,39.45 272.73,65.63 454.61,78.84 181.81,13.12 400.52,4.31 656.05,-26.33 82.21,-144.4 164.47,-282.23 246.75,-413.55 82.26,-135.67 158.04,-258.2 227.34,-367.61 73.63,-109.41 138.56,-201.31 194.8,-275.72 56.29,-78.78 99.61,-131.28 129.94,-157.53 21.62,-21.93 51.95,-50.35 90.9,-85.38 43.31,-34.99 88.78,-65.65 136.36,-91.89 47.66,-26.25 95.27,-41.55 142.93,-45.94 47.6,-8.73 88.76,2.24 123.38,32.82 38.95,39.36 47.66,102.83 25.97,190.39 -17.33,83.17 -47.59,172.88 -90.9,269.09 -43.32,96.29 -90.92,186.01 -142.87,269.23 -47.66,83.09 -80.13,142.23 -97.4,177.22 -34.68,61.29 -71.49,120.37 -110.46,177.19 -38.94,56.91 -75.78,113.81 -110.45,170.73 147.27,-35.05 294.48,-74.44 441.69,-118.22zm-1500.33 1601.78c-95.26,236.33 -164.48,437.64 -207.78,603.95 -38.96,161.99 -56.31,293.25 -52.02,393.93 0,105.02 21.69,170.65 65.01,196.89 47.66,21.93 114.72,2.16 201.29,-59.06 52.01,-39.38 106.1,-87.5 162.39,-144.4 60.59,-56.9 114.75,-115.96 162.35,-177.27 52.01,-65.63 95.27,-131.26 129.95,-196.97 34.6,-69.97 54.08,-137.83 58.43,-203.46 4.28,-48.18 -4.35,-85.32 -25.97,-111.65 -17.35,-26.24 -38.97,-41.54 -64.95,-45.93 -25.97,-4.34 -49.8,0 -71.49,13.2 -21.62,8.72 -32.47,26.24 -32.47,52.43 -12.98,-30.58 -8.63,-54.67 12.98,-72.19 21.7,-21.87 47.68,-32.83 78,-32.83 30.25,0 60.58,10.96 90.91,32.83 30.26,17.52 49.8,48.18 58.43,91.88 38.97,-131.26 90.98,-277.88 155.85,-439.8l26.05 0c47.6,0 71.43,-24.08 71.43,-72.2 0,-48.17 -23.83,-72.2 -71.43,-72.2 -30.33,0 -52.01,15.3 -65.01,45.94 -34.6,-30.64 -58.43,-72.18 -71.42,-124.77 -8.63,-52.51 4.35,-109.33 39.03,-170.64 -17.41,30.65 -21.7,61.31 -13.06,91.89 8.71,30.66 21.69,52.57 39.02,65.71 21.62,13.04 47.61,17.45 77.94,13.04 30.25,-8.73 60.56,-32.81 90.9,-72.18 64.93,-140.01 138.57,-291.02 220.78,-452.94 86.62,-161.91 177.52,-323.83 272.79,-485.81 -77.92,21.91 -153.64,39.45 -227.27,52.51 -69.3,13.18 -138.57,24.09 -207.85,32.87 -147.22,214.43 -296.64,426.68 -448.13,636.77 -151.56,205.69 -303.12,409.15 -454.68,610.46zm-1767.19 229.78c-4.27,8.73 -21.61,41.6 -51.93,98.51 -25.98,56.84 -56.31,124.7 -90.99,203.46 -30.25,78.83 -60.57,161.91 -90.9,249.47 -30.25,83.17 -51.95,157.53 -64.93,223.22 -12.98,61.23 -12.98,107.19 0,137.83 12.98,30.65 45.45,30.65 97.4,0 116.96,-70.03 272.79,-251.64 467.66,-544.89 43.24,-153.11 106.11,-323.82 188.38,-512 82.28,-192.55 186.18,-400.43 311.69,-623.64 -13,-148.8 -77.93,-179.43 -194.81,-91.88 -69.28,52.49 -153.7,148.78 -253.31,288.77 -95.26,140.06 -201.37,330.46 -318.26,571.15zm-162.33 -341.37c47.61,0 71.44,-24.09 71.44,-72.18 0,-48.11 -23.83,-72.2 -71.44,-72.2 -21.69,0 -39.02,8.73 -52.01,26.24 -51.94,-74.41 -51.94,-159.74 0,-256.02 -12.98,30.65 -17.27,59.07 -12.98,85.32 4.35,26.24 15.12,48.17 32.53,65.71 17.27,17.45 38.96,26.24 64.87,26.24 30.39,-4.39 58.51,-19.69 84.48,-46.01 8.63,-8.73 15.13,-17.46 19.48,-26.25 4.35,-8.73 10.85,-17.45 19.48,-26.18 147.22,-192.64 287.93,-319.5 422.14,-380.82 82.28,-43.78 153.69,-54.72 214.36,-32.81 77.99,17.53 129.86,61.23 155.91,131.34 25.96,69.96 38.96,139.98 38.96,210.03 12.91,48.17 23.76,83.14 32.39,104.99 8.71,21.93 17.41,37.23 26.04,46.02 12.99,4.33 25.99,6.49 38.97,6.49 17.27,0 38.95,6.63 64.93,19.69 12.99,0 15.14,10.97 6.5,32.9 -17.27,30.58 -45.46,87.48 -84.41,170.64 -34.62,83.15 -75.78,179.44 -123.38,288.85 -47.67,105.07 -97.48,216.66 -149.43,334.79 -51.93,118.14 -97.4,227.61 -136.42,328.23 -34.61,100.68 -62.72,188.16 -84.42,262.6 -17.33,70.03 -17.33,113.8 0,131.26 8.71,8.81 26.04,6.57 51.95,-6.57 25.96,-13.12 52.01,-30.58 77.99,-52.49 30.26,-21.87 58.43,-41.56 84.42,-59.08 25.96,-21.85 41.1,-37.21 45.45,-45.93 38.96,-30.66 86.55,-76.6 142.92,-137.91 56.3,-65.63 106.04,-135.6 149.35,-210.01 47.6,-74.44 80.13,-148.8 97.48,-223.22 21.61,-74.43 17.27,-140 -13.06,-196.91 -21.62,-43.78 -56.24,-70.02 -103.9,-78.83 -43.32,-8.73 -67.07,17.54 -71.42,78.83 -8.71,-26.24 -6.5,-48.17 6.48,-65.69 17.35,-21.87 36.76,-37.14 58.45,-45.95 25.97,-8.73 51.95,-6.55 77.92,6.57 30.33,13.12 56.3,39.38 77.91,78.83 34.68,65.63 41.18,139.99 19.49,223.15 -17.27,78.81 -49.74,157.59 -97.4,236.34 -47.6,78.75 -101.75,150.95 -162.41,216.66 -56.22,65.63 -106.03,118.14 -149.27,157.5 -47.68,43.78 -97.48,85.33 -149.43,124.71 -47.66,35.05 -103.89,54.75 -168.89,59.14 -73.64,8.73 -125.51,-19.69 -155.84,-85.38 -17.33,-30.6 -28.18,-65.65 -32.47,-105.02 -4.35,-43.78 -6.5,-87.5 -6.5,-131.26 4.29,-43.78 8.63,-87.56 13,-131.34 4.27,-43.72 10.77,-83.16 19.41,-118.13 -21.62,34.97 -62.72,91.87 -123.39,170.64 -56.29,78.83 -121.23,155.35 -194.79,229.78 -69.28,70.03 -142.93,124.69 -220.84,164.08 -73.57,39.44 -138.58,39.44 -194.88,0 -64.93,-43.7 -95.2,-122.53 -90.91,-236.28 0,-113.8 17.34,-231.94 51.94,-354.49 30.34,-126.92 69.28,-247.3 116.96,-361.04 47.59,-113.8 84.42,-194.73 110.39,-242.91 21.61,-43.78 41.18,-83.14 58.43,-118.13 17.35,-39.45 36.83,-76.6 58.45,-111.65 17.33,8.73 30.33,13.12 39.02,13.12zm-3457.13 -1713.34c-134.21,113.82 -259.8,266.93 -376.74,459.57 -116.88,188.1 -199.17,385.07 -246.77,590.76 -47.66,205.68 -49.79,402.65 -6.48,590.83 47.58,188.16 168.83,339.19 363.69,453 4.29,-157.59 28.12,-317.35 71.43,-479.26 47.66,-166.31 112.59,-328.23 194.87,-485.81 -17.32,-21.85 -25.96,-54.67 -25.96,-98.45 0,-48.17 15.12,-87.56 45.45,-118.14 30.25,-30.65 67.06,-45.93 110.38,-45.93 12.98,0 21.62,2.15 25.98,6.55 151.56,-227.61 324.74,-433.31 519.62,-617.07 199.14,-183.85 404.79,-328.23 617.01,-433.33 -103.98,-56.9 -214.36,-94.05 -331.24,-111.56 -112.59,-17.54 -227.34,-17.54 -344.22,0 -112.6,17.51 -223,52.5 -331.24,105.07 -103.96,48.12 -199.23,109.35 -285.78,183.77zm1441.83 -72.18c-246.83,74.36 -474.09,196.89 -681.95,367.59 -207.87,166.31 -387.53,365.46 -539.09,597.4 47.66,34.97 71.49,80.93 71.49,137.83 0,48.17 -15.2,87.56 -45.53,118.14 -30.25,30.64 -69.28,46.01 -116.88,46.01 -30.31,0 -54.08,-6.57 -71.41,-19.69 -73.65,153.11 -132.1,310.69 -175.42,472.61 -43.29,157.53 -69.27,317.29 -77.91,479.18 116.88,56.92 231.63,83.17 344.22,78.83 116.88,-8.72 225.13,-37.21 324.74,-85.32 103.9,-52.57 194.88,-122.59 272.79,-210.09 82.28,-91.87 149.35,-192.55 201.38,-301.96 64.93,-135.68 106.03,-253.82 123.36,-354.5 17.35,-100.68 17.35,-186 0,-256.02 -12.98,-74.44 -36.81,-133.5 -71.41,-177.22 -34.68,-48.17 -71.44,-85.38 -110.46,-111.65 129.94,56.91 203.51,172.89 220.84,347.92 21.62,170.73 -17.33,361.13 -116.88,571.14 -56.3,118.14 -125.58,223.23 -207.86,315.11 -82.28,87.55 -175.31,157.52 -279.29,210.09 -99.53,52.5 -209.99,83.16 -331.22,91.89 -116.88,8.73 -240.35,-10.97 -370.21,-59.08 8.64,161.92 47.66,310.71 116.88,446.39 86.63,-52.51 177.55,-94.13 272.79,-124.71 95.27,-30.66 188.39,-41.62 279.29,-32.82 95.27,4.34 181.89,30.58 259.81,78.75 82.28,48.12 151.56,124.71 207.86,229.73 108.24,-87.5 214.28,-203.46 318.25,-347.86 103.88,-144.46 199.15,-328.29 285.72,-551.44 134.29,-328.23 212.2,-617.09 233.82,-866.55 21.7,-249.48 2.13,-463.9 -58.43,-643.34 -56.32,-179.45 -149.35,-328.22 -279.29,-446.36zm-1493.83 2743.96c73.62,113.81 164.54,196.97 272.79,249.48 112.59,52.51 235.97,65.63 370.18,39.38 112.6,-26.26 216.5,-76.59 311.76,-150.95 -51.95,-96.29 -116.88,-166.33 -194.8,-210.11 -73.64,-48.09 -153.71,-74.42 -240.32,-78.75 -86.63,-4.39 -175.33,8.73 -266.31,39.39 -86.55,26.24 -171.04,63.39 -253.3,111.56zm3481.29 -2638.97c-298.83,-87.55 -610.59,-150.95 -935.33,-190.31 -320.37,-39.47 -636.5,-21.93 -948.23,52.48 203.49,157.53 352.91,361.07 448.18,610.46 73.57,196.97 106.09,424.52 97.4,682.78 -8.64,253.79 -75.78,538.26 -201.38,853.35 -112.51,284.47 -246.75,509.92 -402.65,676.15 -151.56,166.33 -309.55,286.7 -474.09,361.06 0,56.9 -10.85,113.81 -32.47,170.71 -21.69,52.5 -49.81,98.44 -84.49,137.83 -30.25,39.38 -64.93,67.86 -103.88,85.38 -34.62,17.46 -69.3,17.46 -103.9,0 56.3,13.14 112.53,-10.96 168.83,-72.18 56.3,-61.32 90.98,-162 103.96,-301.99 -34.68,13.13 -69.28,24.03 -103.96,32.82 -30.25,4.33 -62.8,10.88 -97.4,19.69 -181.89,26.25 -350.72,0 -506.63,-78.83 -155.85,-78.75 -279.21,-196.89 -370.21,-354.49 -86.55,61.31 -168.81,135.73 -246.8,223.23 -77.93,83.15 -147.21,177.2 -207.8,282.29 -56.3,100.61 -97.4,207.86 -123.44,321.66 -25.97,109.41 -25.97,218.82 0,328.23 8.71,-4.4 26.04,-6.55 52.01,-6.55 43.25,0 80.07,15.36 110.4,45.93 34.6,30.66 51.95,70.03 51.95,118.14 0,61.3 -25.99,107.23 -77.94,137.89 82.29,113.75 181.84,188.18 298.78,223.21 121.23,35 244.61,41.57 370.19,19.7 129.88,-21.91 257.59,-70.03 383.19,-144.46 125.57,-70.03 238.18,-153.19 337.72,-249.46 428.71,-415.79 891.95,-1137.81 1389.95,-2166.28 47.58,-96.29 95.18,-190.4 142.85,-282.29 47.6,-96.29 99.61,-194.73 155.84,-295.41 17.33,8.72 34.68,13.12 52.01,13.12 25.99,0 47.61,-8.73 64.93,-26.25 21.64,-21.85 32.47,-45.95 32.47,-72.2 0,-30.65 -10.83,-54.74 -32.47,-72.2 -17.32,-21.91 -38.94,-32.87 -64.93,-32.87 -34.68,0 -62.79,15.36 -84.47,45.94 -77.94,-74.36 -127.73,-172.81 -149.35,-295.36 -17.35,-126.92 10.85,-256.03 84.42,-387.36 -34.62,74.43 -45.47,146.63 -32.47,216.66 17.33,65.63 49.8,115.98 97.4,151.03 47.66,34.97 103.96,48.09 168.89,39.36 69.3,-8.78 136.36,-52.56 201.37,-131.31 25.97,-35 47.59,-65.65 64.94,-91.9 77.91,-109.41 158.04,-214.42 240.24,-315.1 86.63,-100.69 175.39,-194.74 266.37,-282.3zm-3695.59 2126.98c-155.91,-70.03 -277.14,-161.98 -363.69,-275.72 -82.28,-118.22 -136.44,-247.32 -162.41,-387.31 -30.33,-140.05 -34.62,-286.69 -12.98,-439.88 21.68,-157.5 60.64,-308.53 116.88,-452.91 60.64,-148.8 134.29,-286.71 220.84,-413.63 90.92,-131.26 190.53,-242.85 298.77,-334.72 108.25,-91.96 227.35,-159.76 357.21,-203.54 129.92,-43.78 261.94,-65.63 396.17,-65.63 138.56,-4.4 275,10.96 409.22,45.96 134.23,34.97 259.8,85.3 376.68,150.95 190.53,-87.5 387.54,-148.8 591.05,-183.79 203.51,-39.37 407,-56.9 610.51,-52.57 203.51,0 407.02,17.54 610.46,52.57 207.85,30.6 409.23,74.38 604.1,131.28 51.87,-34.99 119.02,-72.2 201.3,-111.59 86.61,-39.36 173.18,-67.86 259.81,-85.32 90.89,-21.91 177.52,-28.48 259.8,-19.67 86.61,8.71 155.83,41.54 207.78,98.44 -69.28,-52.51 -140.71,-76.59 -214.28,-72.2 -69.28,4.34 -136.42,21.85 -201.37,52.51 -64.93,30.58 -123.37,67.79 -175.39,111.57 -47.59,39.38 -84.42,72.2 -110.38,98.44 155.9,52.59 309.62,111.65 461.1,177.28 155.91,61.23 311.82,113.82 467.66,157.6 155.85,43.7 313.9,72.18 474.17,85.24 160.2,8.81 324.74,-17.45 493.57,-78.75 51.95,-17.46 106.09,-45.96 162.33,-85.32 60.64,-39.39 110.46,-83.17 149.41,-131.26 43.31,-52.51 73.64,-105.1 90.91,-157.6 17.35,-52.51 10.85,-105 -19.48,-157.51 38.97,48.1 60.66,111.57 64.93,190.32 8.72,78.83 -10.85,164.15 -58.43,256.05 -43.31,87.56 -121.23,175.04 -233.84,262.6 -112.52,83.14 -268.44,153.19 -467.59,210.09 -173.17,48.09 -339.93,65.63 -500.13,52.5 -155.85,-17.53 -309.54,-50.35 -461.1,-98.52 -151.56,-52.51 -303.06,-111.57 -454.62,-177.2 -151.56,-70.04 -305.26,-131.27 -461.17,-183.84 -151.56,196.97 -316.04,450.84 -493.57,761.53 -177.52,306.32 -372.4,678.33 -584.54,1115.96 -242.48,507.67 -487.15,934.36 -733.9,1280.1 -246.82,345.77 -491.49,621.49 -733.97,827.1 -112.53,91.96 -248.96,172.89 -409.16,242.91 -160.19,74.44 -324.73,122.55 -493.62,144.4 -168.84,21.91 -331.24,10.97 -487.09,-32.75 -155.91,-43.78 -285.78,-135.66 -389.67,-275.72 -8.7,4.33 -21.7,6.57 -38.97,6.57 -47.66,0 -86.61,-15.36 -116.94,-45.96 -30.26,-30.64 -45.45,-70.02 -45.45,-118.2 0,-56.84 21.68,-100.68 64.93,-131.26 -25.98,-118.21 -25.98,-236.35 0,-354.49 21.68,-118.2 62.8,-229.78 123.44,-334.8 60.59,-109.41 132,-210.09 214.28,-301.96 86.63,-91.9 175.39,-168.49 266.31,-229.79 -43.31,-83.16 -75.78,-168.48 -97.42,-256.04 -17.33,-87.48 -28.17,-175.04 -32.46,-262.52z" />
		<path fill="#31353A" fill-rule="nonzero" d="M3669.65 7080.68c228.57,-108.16 205.03,-164.1 216.04,-241.26 24.47,-171.82 -216.04,-241.74 -216.04,241.26zm619.71 867.18c-28.33,14.31 -67.15,51.81 -116.55,112.48 -49.52,60.68 -90,142.71 -121.78,246.19 -21.2,64.24 -31.01,125.81 -29.15,184.67 1.72,58.94 12.29,108.94 31.78,149.91 19.34,41.07 45.86,72.28 79.44,93.71 33.5,21.36 74.94,26.74 124.48,16.05 49.38,-10.74 92.64,-65.07 129.73,-163.3 37.08,-98.11 68.81,-216.8 95.32,-355.96 26.47,-139.15 45.04,-287.23 55.61,-444.34 10.57,-156.95 12.3,-299.73 5.33,-428.22 -7.11,-128.47 -23.83,-230.95 -50.37,-307.76 -26.45,-76.68 -64.44,-106.13 -113.84,-88.33 -91.88,39.3 -176.63,115.07 -254.21,227.48 -77.72,112.42 -146.59,241.8 -206.55,388.14 -60.09,146.34 -110.38,296.25 -150.93,449.57 -40.61,153.55 -69.77,289.14 -87.39,406.85 0,142.79 0,280.19 0,412.22 0,132.05 -1.86,228.4 -5.31,289.06 -7.13,328.39 -56.51,573.67 -148.25,736 -91.88,162.47 -220.7,254.29 -386.64,275.72 -42.41,-7.12 -64.44,-24.09 -66.24,-50.9 -1.8,-26.74 0.82,-49.01 7.95,-66.88l21.21 0c52.96,-7.13 94.42,-52.59 124.48,-136.5 29.9,-83.8 52.91,-193.55 68.79,-329.22 15.9,-135.6 26.53,-292.55 31.78,-471.09 5.32,-178.38 8.85,-365.71 10.63,-562.05 1.84,-206.25 10.4,-1037.61 18.52,-1182.98 -3.52,3.57 -8.85,5.37 -15.9,5.37 -1384.92,395.52 -636.43,1187.82 -375.67,947.93 135.9,-125.01 132.35,-308.85 -64.01,-482.57 -14.18,-10.69 -16.8,-21.43 -7.95,-32.12 8.77,-10.69 22.03,-20.44 39.71,-29.47 17.63,-8.87 37.11,-14.17 58.24,-15.97 386.63,-33.19 378.7,581.8 169.08,760.2 -635.55,513.74 -1689.98,-933.32 207.08,-1324.65 87.74,-1239.68 1291.51,-417.78 307.19,53.48 0,92.86 0.82,186.5 2.63,281.05 1.78,94.6 2.68,191.86 2.68,291.71 24.67,-96.37 56.43,-196.2 95.34,-299.75 38.81,-103.47 86.47,-199.84 142.98,-289.06 56.44,-89.16 122.62,-167.72 198.6,-235.5 75.86,-67.73 163.25,-115.98 262.16,-144.54 102.39,-28.56 190.66,-17.88 264.78,32.12 74.19,49.99 133.25,124 177.46,222.1 44.08,98.23 74.96,214.15 92.64,347.98 17.63,133.8 21.21,271.27 10.64,412.17 -10.64,141.04 -34.47,279.28 -71.5,414.88 -37.08,135.65 -86.55,254.28 -148.31,355.93 -61.83,101.73 -135.95,179.38 -222.44,232.87 -86.55,53.54 -184.5,69.61 -293.92,48.18 -3.6,-3.51 -27.43,-16.07 -71.51,-37.43 -44.2,-21.43 -87.37,-60.68 -129.79,-117.78 -42.35,-57.06 -69.71,-134.7 -82.06,-232.87 -12.44,-98.09 11.45,-225.65 71.49,-382.76 42.41,-110.51 95.32,-182.02 158.88,-214.06 63.55,-32.19 114.67,-21.44 153.64,32.04z" />
		<path fill="#31353A" fill-rule="nonzero" d="M5705.51 7241.76c47.17,215 -122.58,540.56 -302.88,540.56 -63.63,0 -127.17,-24.94 -190.73,-74.99 -63.54,-49.92 -105.9,-137.34 -127.1,-262.32 -17.63,-128.47 -15.82,-237.25 5.32,-326.49 21.21,-89.16 52.97,-161.42 95.33,-216.8 42.41,-55.3 89.11,-94.53 140.36,-117.78 51.12,-23.18 154.48,-28.66 196.89,-25.1 63.38,6.42 122.75,62.27 156.55,140.35 25.63,59.25 47.04,149.78 49.11,240.25 3.12,134.72 -22.67,270.65 -29.6,312.49 -1.92,1.94 -74.69,-53.39 -80.27,-70.36 0,-13.14 10.09,-59.45 15.63,-90.46 17.52,-98.05 4.01,-397.62 -99.12,-418.84 -28.26,-10.69 -56.52,0 -84.77,32.12 -35.17,39.94 -48.9,142.44 -44.61,192.75 4.62,54.08 16.19,90.41 28,124.99 42.89,125.52 223.92,165.3 331.16,178.25 25.34,3.04 91.31,-7.25 145.04,-39.65 89.75,-54.15 172.44,-143.03 172.28,-136.42 -0.25,10.41 -65.38,108.08 -148.19,171.06 -60.23,45.8 -137.95,63.83 -167.72,63.04 -20.05,-0.54 -41.74,-2.46 -64.14,-5.96 -125.91,-19.77 -281.61,-68.38 -324.53,-243.9 -11.94,-48.88 -12.37,-95.61 -12.53,-95.06 -18.11,61.75 -12.57,82.81 -17.98,146.92 -5.3,62.42 -7.1,121.34 -5.3,176.56 1.72,55.44 8.77,102.64 21.2,141.89 12.3,39.31 30.81,64.22 55.62,74.91 24.59,3.64 48.48,-4.39 71.49,-24.01 22.87,-19.63 43.17,-44.63 60.86,-74.99 35.79,-61.41 58.43,-141.93 66.06,-172.7 -4.13,12.37 79.07,-118.28 88.57,-140.31z" />
		<path fill="#31353A" fill-rule="nonzero" d="M5974.6 6674.17c123.52,0 208.29,26.82 254.15,80.38 45.86,53.48 65.34,151.64 58.29,294.36l-5.3 69.61c28.25,-71.35 63.54,-130.21 105.95,-176.64 42.36,-46.35 91.74,-71.35 148.25,-74.99 77.64,0 139.48,20.6 185.42,61.59 45.8,41.05 77.56,89.3 95.32,144.52 17.62,55.38 26.46,115.07 26.46,179.29 0,64.25 -5.33,119.68 -15.88,165.98 84.74,-60.6 141.18,-113.25 169.43,-157.86 28.26,-44.63 51.19,-72.34 68.89,-83.03 17.61,-10.69 34.39,-8.03 50.29,8.04 15.88,16.05 23.83,25.9 23.83,29.47 -28.26,42.79 -55.61,80.29 -82.07,112.39 -26.45,32.13 -60.94,67.81 -103.27,107.04 -42.36,39.33 -91.88,74.99 -148.31,107.11 -38.89,135.66 -96.24,234.67 -172.08,297.1 -76,62.48 -140.36,84.75 -193.35,66.87 -74.14,-14.23 -97.97,-51.65 -71.51,-112.39 26.53,-60.68 71.51,-123.17 135.05,-187.41 35.31,-135.52 60.04,-245.28 74.2,-329.14 14.02,-83.86 21.14,-148.99 21.14,-195.43 0,-46.29 -5.26,-77.64 -15.9,-93.69 -10.57,-16.07 -24.73,-24.11 -42.33,-24.11 -38.89,10.77 -72.39,38.42 -100.65,83.03 -28.26,44.61 -53.89,99 -76.76,163.24 -22.99,64.23 -42.41,133.86 -58.29,208.77 -15.88,74.91 -29.08,149.9 -39.73,224.81l-10.56 283.7c-3.6,196.34 -1.8,340.86 5.31,433.66 6.99,92.78 15.9,157.03 26.45,192.69 10.58,35.69 21.21,53.5 31.78,53.5 10.58,0 19.35,5.36 26.46,16.05 3.52,21.44 1.74,41.13 -5.25,58.94 -3.58,7.19 -8.91,12.49 -15.88,16.05 -21.21,3.57 -38.89,5.31 -52.99,5.31 -17.68,3.64 -33.56,5.38 -47.66,5.38 -14.16,0 -30.06,1.8 -47.66,5.36 -70.67,7.21 -121.86,-32.95 -153.58,-120.43 -31.84,-87.42 -52.97,-204.29 -63.54,-350.65 -10.63,-146.26 -12.38,-313.15 -5.33,-500.48 7.13,-187.39 14.16,-380.93 21.21,-580.83 3.47,-46.29 5.25,-102.58 5.25,-168.63 0,-65.98 -3.51,-118.55 -10.56,-157.94l-10.57 -48.17c-7.05,-14.17 -20.31,-22.21 -39.73,-24.09 -19.41,-1.74 -25.61,-15.08 -18.58,-40.13 3.6,-14.19 9.81,-25.85 18.58,-34.78 8.85,-8.87 27.35,-13.42 55.61,-13.42z" />
	</g>
</svg>
